<?xml version="1.0" encoding="UTF-8" standalone="no"?>
<svg
   xmlns:dc="http://purl.org/dc/elements/1.1/"
   xmlns:cc="http://creativecommons.org/ns#"
   xmlns:rdf="http://www.w3.org/1999/02/22-rdf-syntax-ns#"
   xmlns:svg="http://www.w3.org/2000/svg"
   xmlns="http://www.w3.org/2000/svg"
   xmlns:sodipodi="http://sodipodi.sourceforge.net/DTD/sodipodi-0.dtd"
   xmlns:inkscape="http://www.inkscape.org/namespaces/inkscape"
   version="1.1"
   id="svg2"
   xml:space="preserve"
   width="1608.12"
   height="1626.6667"
   viewBox="0 0 1608.12 1626.6667"
   sodipodi:docname="Logo ĐH Bách Khoa-HCMUT.eps"><metadata
     id="metadata8"><rdf:RDF><cc:Work
         rdf:about=""><dc:format>image/svg+xml</dc:format><dc:type
           rdf:resource="http://purl.org/dc/dcmitype/StillImage" /></cc:Work></rdf:RDF></metadata><defs
     id="defs6" /><sodipodi:namedview
     pagecolor="#ffffff"
     bordercolor="#666666"
     borderopacity="1"
     objecttolerance="10"
     gridtolerance="10"
     guidetolerance="10"
     inkscape:pageopacity="0"
     inkscape:pageshadow="2"
     inkscape:window-width="640"
     inkscape:window-height="480"
     id="namedview4" /><g
     id="g10"
     inkscape:groupmode="layer"
     inkscape:label="ink_ext_XXXXXX"
     transform="matrix(1.3333333,0,0,-1.3333333,0,1626.6667)"><g
       id="g12"
       transform="scale(0.1)"><path
         d="m 6038.1,12200 h 0.9 l 0.4,-5.8 c 0.9,-1087.9 0.1,-2175.9 0.4,-3263.8 -1.6,-74 4.1,-148.2 -4,-222 C 5930.4,8654.7 5830.3,8591 5727,8533.3 5036.1,8134.4 4345.1,7735.4 3654.1,7336.5 3443.7,7216.3 3235.3,7092.2 3023.6,6974.3 l -11.1,-5 c 1.2,1153.7 0.3,2307.4 0.4,3461.2 -3.6,31 34,39 53.7,53.6 990.8,571.5 1981.6,1143.1 2971.5,1715.9"
         style="fill:#2a388c;fill-opacity:1;fill-rule:nonzero;stroke:none"
         id="path14" /><path
         d="m 9046.7,6959.6 c 6.9,2.1 14,4 21.3,5.9 875.3,-514.4 1752.5,-1025.7 2628.5,-1538.9 119.2,-71.6 241.9,-137.8 358.9,-212.6 8.3,-29.9 2.5,-62.6 4,-93.7 1.1,-1129 0.8,-2258.1 1.5,-3387.1 l -3.3,-1.4 c -702.3,409.4 -1404.8,818.4 -2107.2,1227.6 -301,176.7 -604.4,349.5 -904,528.6 4.4,513.9 0.7,1028 1.9,1542 -1.1,643.2 2.2,1286.5 -1.6,1929.6"
         style="fill:#2a388c;fill-opacity:1;fill-rule:nonzero;stroke:none"
         id="path16" /><path
         d="m 4419.5,5732.2 c 0.8,-192.8 -1.8,-385.7 1.3,-578.4 172.4,1.5 344.8,-0.9 517.2,1.4 67.9,2.6 137,1 203.5,16.9 86.2,20.4 162.7,86.3 185.6,173.3 20.1,78.3 16.7,166.2 -23.3,237.8 -39.2,70.7 -114.5,115.6 -192.7,129.1 -89.3,15.4 -180.1,17.3 -270.4,19.4 -140.4,1.1 -280.8,0.3 -421.2,0.5 z m 0.9,855.2 c -2.2,-165.7 -0.4,-331.4 -0.9,-497.1 180.5,0.8 361.1,-2.3 541.7,3.5 69.7,1.9 142.7,13.3 201.1,54.2 129.1,85.7 128.9,307.9 -1.7,392 -74.3,46.8 -165.6,42.7 -249.9,45.2 -163.4,3 -326.9,1.1 -490.3,2.2 z m -436.5,357.8 c 305.8,-0.4 611.7,0.3 917.5,-0.4 113,-1.9 226.9,-3.7 338.4,-23.6 142,-25.9 272.8,-109.2 352.8,-229.8 89.8,-125.8 111.3,-293.8 66.1,-440.5 -42.5,-137.9 -146.4,-253.7 -277.6,-313.4 151.7,-42.3 291.6,-143.4 357.1,-289.7 109.4,-242.9 26.7,-551.2 -177.2,-718.7 -98,-80.5 -224.7,-117.7 -349.6,-126.9 -103.2,-6.8 -206.7,-8.4 -310.2,-10.1 -305.9,-3.7 -611.9,-1.8 -917.8,-1.6 0.9,718.2 0,1436.5 0.5,2154.7"
         style="fill:#2a388c;fill-opacity:1;fill-rule:nonzero;stroke:none"
         id="path18" /><path
         d="m 6285.1,6945.1 c 144.9,0.4 289.7,-0.7 434.6,0.6 2.7,-318.2 0.3,-636.5 1.2,-954.8 292.8,317.7 585.2,635.7 877.3,953.9 194.4,0.8 388.7,0 583.1,0.4 -268.6,-280.9 -540,-559.3 -810.3,-838.7 283.9,-439.3 569.3,-877.5 853.7,-1316.4 -187.4,0 -374.8,-0.3 -562.2,0.2 -194.4,333.5 -390,666.4 -584.5,999.9 -4.6,14.4 -18.4,2.5 -23.4,-4.6 -110.8,-115.1 -222.7,-229.1 -333.8,-344 0,-217.2 0,-434.3 0,-651.5 -145.4,0.5 -290.9,-1.3 -436.3,0.9 1.4,718 0.2,1436 0.6,2154.1"
         style="fill:#2a388c;fill-opacity:1;fill-rule:nonzero;stroke:none"
         id="path20" /><path
         d="m 2119.9,2981 c 301.1,170.6 600.1,345.1 902.6,513.1 416.7,-244.8 837,-483.8 1255.2,-726.4 420.8,-243 841.7,-486 1262.5,-728.9 168,-94.9 332.5,-196.2 502.8,-286.9 l -11.5,-8.2 C 5812.6,1613.3 5590.4,1488.4 5370.2,1360.2 4658.1,949 3946.1,537.902 3234,126.801 3166.7,85.3008 3094.2,51.6016 3030.4,4.90234 L 3028.4,0 h -13.9 c -9.2,9.19922 -18.1,18.6016 -29.3,24.8008 C 1989.9,605.5 995.199,1187.1 0,1767.9 c 105.199,67.5 216.602,125 324.301,188.4 598.5,341.6 1197.099,683 1795.599,1024.7"
         style="fill:#2a388c;fill-opacity:1;fill-rule:nonzero;stroke:none"
         id="path22" /><path
         d="m 6039.4,12194.2 c 1004.3,-581.4 2010.3,-1159.7 3014.3,-1741.5 -0.1,-1156.6 -1,-2313.1 0.5,-3469.6 -3.9,-6 -7.7,-12.1 -11.3,-18.2 -44.3,33.4 -94.6,57.2 -141.8,85.8 -845.3,488.1 -1690.7,976.1 -2536,1464.2 -109.3,65.2 -222.6,124.2 -329.3,193.5 8.1,73.8 2.4,148 4,222 -0.3,1087.9 0.5,2175.9 -0.4,3263.8"
         style="fill:#4582cc;fill-opacity:1;fill-rule:nonzero;stroke:none"
         id="path24" /><path
         d="m 2667.1,6772.4 c 115.4,65 228.1,135.3 345.4,196.9 l 11.1,5 c -1.1,-1160.1 1.1,-2320.1 -1.1,-3480.2 C 2720,3326.1 2421,3151.6 2119.9,2981 1521.4,2639.3 922.801,2297.9 324.301,1956.3 216.602,1892.9 105.199,1835.4 0,1767.9 1.19922,2922.6 0.398438,4077.3 0.300781,5232 888.602,5746.6 1778.3,6258.8 2667.1,6772.4"
         style="fill:#4582cc;fill-opacity:1;fill-rule:nonzero;stroke:none"
         id="path26" /><path
         d="m 6644.7,4295.4 c 67.4,66.4 162.1,100 255.9,101.2 90.9,3.7 186,-20.7 255,-82.2 49.6,-42.1 77.5,-103.1 96.2,-164.1 -55.7,-13.5 -111.6,-26.8 -167.3,-40.4 -12.1,43.9 -35.1,86.6 -74.3,111.7 -84.5,55.7 -212.3,32 -268,-53.7 -43.2,-67.1 -46.6,-150.5 -45.3,-228 3.4,-70.5 11.7,-147.6 59.4,-203.4 60.6,-73 180.9,-88 255.5,-28.1 44.3,34.5 64.3,89.3 78.2,141.7 54.6,-16.9 109.2,-33.9 163.8,-50.8 -21.8,-76.1 -57.7,-151.9 -121.2,-202 -81.1,-64.9 -191.6,-79.9 -292,-66.5 -113.7,14.6 -216.1,89.2 -268.3,190.6 -49.2,94.8 -56.7,205.4 -46.4,310 9.7,97.5 46.4,195.7 118.8,264"
         style="fill:#4582cc;fill-opacity:1;fill-rule:nonzero;stroke:none"
         id="path28" /><path
         d="m 3981.8,4381.8 c 221.5,0.3 443,-0.4 664.4,0.4 1.5,-47.5 0.5,-95.1 1,-142.7 -82.4,-1.7 -164.8,-0.3 -247.2,-0.7 -0.1,-232.9 0,-465.8 0,-698.8 -56.4,0 -112.7,0 -169,0 0,232.9 0.1,465.9 0,698.8 -83.1,0 -166.1,-0.1 -249.2,0 0,47.7 0,95.4 0,143"
         style="fill:#4582cc;fill-opacity:1;fill-rule:nonzero;stroke:none"
         id="path30" /><path
         d="m 4924.1,4238.6 c 0,-79.2 0.6,-158.5 -0.3,-237.8 59.3,-0.9 118.7,-2 177.9,2.9 28,2.2 56.7,9.2 79,27.3 52.7,40.6 55.5,129.9 5.5,173.7 -22.9,21.5 -54.4,29.9 -85,31.4 -58.9,3.9 -118.1,2.4 -177.1,2.5 z m -169.3,-697.8 c 1.7,280.5 -0.8,560.9 1.3,841.4 138.2,-2.3 276.8,3.8 414.9,-4.8 61.1,-2.1 121.9,-26.8 162.5,-73.5 63,-67.4 72.7,-168.2 55.3,-255.2 -19.1,-92.6 -99.5,-167.6 -192.7,-181.8 -90,-13.2 -181.3,-8.8 -271.9,-9.8 0,-105.7 0,-211.4 0,-317.1 -56.5,0.3 -113,-0.8 -169.4,0.8"
         style="fill:#4582cc;fill-opacity:1;fill-rule:nonzero;stroke:none"
         id="path32" /><path
         d="m 5709,4381.9 c 56.3,-0.1 112.6,0.3 168.9,-0.3 -0.2,-110.2 -0.1,-220.4 -0.1,-330.7 111,0 222,0.1 333.1,0 0.1,110.3 0,220.6 0,330.9 56.3,0.1 112.6,0.1 168.9,0 0,-280.5 -0.1,-561.1 0.1,-841.7 -56.4,-0.1 -112.7,-0.1 -169,-0.1 -0.1,122.7 0.2,245.3 -0.2,367.9 -110.8,0 -221.6,-0.3 -332.5,0.1 -0.9,-122.6 -0.3,-245.2 -0.3,-367.8 -56.3,-0.3 -112.6,-0.1 -168.9,-0.2 -0.1,280.6 -0.1,561.2 0,841.9"
         style="fill:#4582cc;fill-opacity:1;fill-rule:nonzero;stroke:none"
         id="path34" /><path
         d="m 7394,3540.7 c 1.5,280.5 -0.9,561 1.2,841.5 84.5,-0.8 169,0.1 253.5,-0.5 49.7,-190.6 100.3,-381 149.8,-571.7 52.8,189.7 99.7,381.1 150,571.6 84.9,0.7 169.7,0.2 254.7,0.2 0,-280.6 0,-561.2 0,-841.8 -52.1,0 -104.1,0 -156.1,0 -0.1,220.1 -0.7,440.1 -0.3,660.2 -57.3,-219.6 -110.7,-440.2 -166.5,-660.2 -54.5,-0.1 -108.9,0.3 -163.3,-0.3 -54.6,220.1 -112.2,439.5 -163,660.5 -6.3,-219.9 -1.4,-440.1 -3.3,-660.2 -52.3,0.2 -104.5,-0.5 -156.7,0.7"
         style="fill:#4582cc;fill-opacity:1;fill-rule:nonzero;stroke:none"
         id="path36" /><path
         d="m 5381.9,3701.4 c 53.6,0 107.2,0 160.8,0 0,-53.8 0,-107.6 0,-161.4 -53.6,0.1 -107.3,0 -160.9,0.1 0.2,53.8 0.1,107.5 0.1,161.3"
         style="fill:#4582cc;fill-opacity:1;fill-rule:nonzero;stroke:none"
         id="path38" /><path
         d="m 6425,1975 c 873.9,504.1 1747.2,1009.4 2621.4,1513 299.6,-179.1 603,-351.9 904,-528.6 702.4,-409.2 1404.9,-818.2 2107.2,-1227.6 -321.1,-181 -640.4,-365.5 -960.9,-547.8 C 10417.3,795.602 9737.1,408.301 9058,19.1992 8049.2,594 7041.3,1170.5 6031.5,1743.7 l 11.5,8.2 c 125,78.1 255,148.1 382,223.1"
         style="fill:#4582cc;fill-opacity:1;fill-rule:nonzero;stroke:none"
         id="path40" /></g></g></svg>
