<svg version="1.1" id="Layer_1" xmlns="http://www.w3.org/2000/svg" xmlns:xlink="http://www.w3.org/1999/xlink" x="0px" y="0px"
	 width="100%" viewBox="0 0 894 1348" enable-background="new 0 0 894 1348" xml:space="preserve">
<path fill="#8F1C1E" opacity="1.000000" stroke="none" 
	d="
M703.000000,1349.000000 
	C533.309998,1349.000000 363.620026,1349.000000 193.487595,1348.653564 
	C179.965363,1335.773315 166.865585,1323.260254 153.810532,1310.700684 
	C135.232849,1292.828125 116.665306,1274.944702 98.135063,1257.022949 
	C73.981171,1233.662354 49.912724,1210.213257 25.712246,1186.901123 
	C17.625420,1179.111084 9.245824,1171.625000 1.000019,1164.000000 
	C1.000000,1078.976685 1.000000,993.953369 1.464846,908.528931 
	C61.248421,908.119080 120.567154,908.109375 179.885880,908.102173 
	C203.880035,908.099243 227.874222,908.082214 251.868271,908.131042 
	C254.313019,908.136047 256.249664,908.118286 257.139832,905.113647 
	C259.076172,898.577271 263.615814,894.074951 269.562775,891.055176 
	C273.807739,888.899719 278.308960,887.249695 282.559753,885.104492 
	C284.423553,884.163818 285.948059,882.550964 288.653473,880.443359 
	C279.264191,880.970337 271.564270,881.732910 263.862152,881.755798 
	C252.843338,881.788452 245.136154,875.627686 243.568848,865.300293 
	C242.978699,861.411438 244.163208,857.253235 244.568420,852.898376 
	C242.923981,852.898376 241.106842,852.898315 239.289703,852.898315 
	C217.628311,852.898315 195.966354,852.818542 174.306091,852.974304 
	C170.547104,853.001343 167.859909,852.006042 165.146698,849.283569 
	C115.746338,799.713440 66.233162,750.255676 16.761187,700.756897 
	C11.818785,695.811768 6.987827,690.755249 2.100036,685.303345 
	C2.058792,682.524353 1.991116,680.192566 1.991037,677.860718 
	C1.985434,513.893616 1.985242,349.926514 2.145714,185.669098 
	C11.298098,176.728745 20.285154,168.074310 29.281416,159.429459 
	C54.715000,134.989349 80.173386,110.575027 105.581970,86.108971 
	C128.360474,64.175438 151.111908,42.213615 173.818146,20.205336 
	C180.314240,13.908936 186.611542,7.407445 193.000000,1.000001 
	C362.689972,1.000000 532.379944,1.000000 702.547546,1.342730 
	C716.691772,14.755001 730.380371,27.801624 744.019531,40.899731 
	C761.978088,58.145855 779.915405,75.414200 797.828247,92.707779 
	C810.378113,104.823753 822.880676,116.988846 835.385437,129.151474 
	C839.202393,132.863983 842.919067,136.679779 846.745728,140.382019 
	C862.479980,155.604797 878.238892,170.802063 893.982666,186.477020 
	C893.973694,279.577789 893.970825,372.210236 893.506348,464.915771 
	C809.421875,464.988861 725.799011,464.988861 641.835388,464.988861 
	C641.835388,467.053375 641.833130,468.673859 641.835693,470.294342 
	C641.865295,489.200958 622.338806,498.401947 610.209839,492.058929 
	C607.070190,490.416992 603.419495,489.177704 599.913879,488.904724 
	C579.203003,487.292114 558.401001,486.546875 537.015503,480.465546 
	C538.979614,483.025482 540.085266,484.608734 541.333069,486.070618 
	C551.929016,498.484039 565.756104,506.632416 579.425049,515.021729 
	C583.524475,517.537720 587.733459,518.336914 592.510132,518.322083 
	C635.839478,518.187256 679.169617,518.283325 722.499084,518.166504 
	C725.960693,518.157166 728.321838,519.200378 730.745728,521.630371 
	C784.061035,575.079346 837.455383,628.449402 890.861206,681.807983 
	C892.083557,683.029358 893.613525,683.942871 895.000000,685.000000 
	C895.000000,685.000000 895.000000,685.500000 894.733948,686.068237 
	C894.315552,688.948120 894.030273,691.259705 894.029968,693.571289 
	C894.005737,850.386353 894.004456,1007.201416 893.849976,1164.312988 
	C876.663513,1180.973022 859.621704,1197.329712 842.594849,1213.701904 
	C824.847046,1230.767334 807.101807,1247.835205 789.377258,1264.924683 
	C767.696350,1285.828857 746.009583,1306.727051 724.386230,1327.690430 
	C717.161499,1334.694702 710.123413,1341.891357 703.000000,1349.000000 
M871.323303,994.500244 
	C871.323303,896.662109 871.307068,798.823975 871.387817,700.985901 
	C871.390747,697.421021 870.513000,694.843689 867.902283,692.242371 
	C818.671875,643.188843 769.569702,594.006592 720.310242,544.982361 
	C718.579224,543.259521 715.510254,542.026428 713.056824,542.012817 
	C678.558716,541.822266 644.059143,541.898804 609.559998,541.841858 
	C607.637573,541.838684 605.388489,541.773315 603.845154,540.830505 
	C588.662415,531.555359 573.514587,522.217041 558.521484,512.639038 
	C543.405762,502.982635 531.404724,490.127258 521.695435,475.142334 
	C519.791321,472.203613 518.773743,468.690521 517.232849,465.181763 
	C518.528015,465.034088 518.879150,464.878693 519.113647,464.983704 
	C541.369019,474.948608 565.003418,478.105225 589.060852,479.386688 
	C597.655762,479.844513 606.109375,480.634674 614.296448,484.329498 
	C622.734314,488.137573 633.025085,480.998596 632.806152,471.458679 
	C632.691711,466.472168 630.481323,461.196594 628.039673,456.689728 
	C625.249512,451.539795 621.150269,447.099091 617.111450,441.666351 
	C702.183533,441.666351 786.563477,441.666351 871.110718,441.666351 
	C871.198669,439.805817 871.315308,438.488525 871.315430,437.171234 
	C871.324158,358.339722 871.348450,279.508148 871.197327,200.676971 
	C871.192932,198.381287 869.877197,195.539536 868.233398,193.886749 
	C859.192139,184.795670 849.865662,175.987961 840.623352,167.097321 
	C792.489319,120.794922 744.333740,74.514824 696.258545,28.151390 
	C693.445679,25.438677 690.645386,24.176401 686.636475,24.178909 
	C527.473572,24.278517 368.310577,24.276100 209.147629,24.185101 
	C205.537003,24.183037 202.878937,25.123701 200.306793,27.612637 
	C180.798096,46.490231 161.190033,65.265129 141.616989,84.076271 
	C103.789001,120.431755 65.983765,156.811005 28.091314,193.099182 
	C25.603695,195.481491 24.602465,197.869995 24.604315,201.330170 
	C24.687853,357.659851 24.661354,513.989563 24.808105,670.319153 
	C24.810556,672.927612 26.107534,676.204956 27.934263,678.043884 
	C76.910385,727.348145 126.051651,776.488342 175.088516,825.732422 
	C177.613922,828.268555 180.082687,829.436829 183.757233,829.413391 
	C210.088867,829.244873 236.422104,829.319580 262.754822,829.332520 
	C264.312439,829.333252 265.869995,829.467407 266.402222,829.492065 
	C262.061890,838.695068 257.293152,847.614929 253.602493,856.960510 
	C249.757858,866.695923 254.528976,873.644470 264.906250,872.930359 
	C277.458191,872.066711 290.182709,870.881470 302.330566,867.834229 
	C312.820953,865.202759 322.698517,859.969849 332.668274,855.489258 
	C337.582764,853.280579 344.245667,853.205750 347.042084,856.681824 
	C350.602997,861.108337 346.320862,864.154419 344.264618,867.010437 
	C333.804169,881.539307 318.872223,888.120117 301.615356,891.112610 
	C292.225555,892.740906 282.591309,894.955322 274.047760,898.984436 
	C262.177551,904.582397 261.532196,918.526611 271.700348,926.910950 
	C273.298676,928.229004 274.999725,929.422485 276.653259,930.673523 
	C276.525208,931.003052 276.397125,931.332642 276.269073,931.662170 
	C192.569427,931.662170 108.869774,931.662170 24.676689,931.662170 
	C24.676689,934.120911 24.676689,936.079163 24.676689,938.037476 
	C24.676683,1006.202576 24.813108,1074.368286 24.487186,1142.531860 
	C24.450470,1150.210327 26.728344,1155.245605 32.235012,1160.515381 
	C88.671425,1214.524170 144.803131,1268.851440 201.121552,1322.984009 
	C202.700958,1324.502075 205.409027,1325.623779 207.591766,1325.625366 
	C367.921295,1325.746826 528.250916,1325.745239 688.580505,1325.635010 
	C690.628662,1325.633545 693.130432,1324.604858 694.647522,1323.213013 
	C702.745178,1315.784668 710.612732,1308.104736 718.530396,1300.481079 
	C768.323669,1252.537720 818.086365,1204.562500 867.963196,1156.706299 
	C870.507935,1154.264648 871.395020,1151.905273 871.388733,1148.496704 
	C871.294312,1097.498047 871.323364,1046.499146 871.323303,994.500244 
z"/>
<path fill="#FFFFFF" opacity="1.000000" stroke="none" 
	d="
M895.000000,684.531372 
	C893.613525,683.942871 892.083557,683.029358 890.861206,681.807983 
	C837.455383,628.449402 784.061035,575.079346 730.745728,521.630371 
	C728.321838,519.200378 725.960693,518.157166 722.499084,518.166504 
	C679.169617,518.283325 635.839478,518.187256 592.510132,518.322083 
	C587.733459,518.336914 583.524475,517.537720 579.425049,515.021729 
	C565.756104,506.632416 551.929016,498.484039 541.333069,486.070618 
	C540.085266,484.608734 538.979614,483.025482 537.015503,480.465546 
	C558.401001,486.546875 579.203003,487.292114 599.913879,488.904724 
	C603.419495,489.177704 607.070190,490.416992 610.209839,492.058929 
	C622.338806,498.401947 641.865295,489.200958 641.835693,470.294342 
	C641.833130,468.673859 641.835388,467.053375 641.835388,464.988861 
	C725.799011,464.988861 809.421875,464.988861 893.759949,464.984070 
	C894.650085,464.986206 894.825012,464.993103 895.000000,465.000000 
	C895.000000,538.020874 895.000000,611.041809 895.000000,684.531372 
z"/>
<path fill="#FFFFFF" opacity="1.000000" stroke="none" 
	d="
M2.105146,685.750427 
	C6.987827,690.755249 11.818785,695.811768 16.761187,700.756897 
	C66.233162,750.255676 115.746338,799.713440 165.146698,849.283569 
	C167.859909,852.006042 170.547104,853.001343 174.306091,852.974304 
	C195.966354,852.818542 217.628311,852.898315 239.289703,852.898315 
	C241.106842,852.898315 242.923981,852.898376 244.568420,852.898376 
	C244.163208,857.253235 242.978699,861.411438 243.568848,865.300293 
	C245.136154,875.627686 252.843338,881.788452 263.862152,881.755798 
	C271.564270,881.732910 279.264191,880.970337 288.653473,880.443359 
	C285.948059,882.550964 284.423553,884.163818 282.559753,885.104492 
	C278.308960,887.249695 273.807739,888.899719 269.562775,891.055176 
	C263.615814,894.074951 259.076172,898.577271 257.139832,905.113647 
	C256.249664,908.118286 254.313019,908.136047 251.868271,908.131042 
	C227.874222,908.082214 203.880035,908.099243 179.885880,908.102173 
	C120.567154,908.109375 61.248421,908.119080 1.464846,908.063904 
	C1.000000,834.312439 1.000000,760.624878 1.261338,686.340088 
	C1.716830,685.745361 1.910985,685.747925 2.105146,685.750427 
z"/>
<path fill="#FFFFFF" opacity="1.000000" stroke="none" 
	d="
M1.000019,1164.468628 
	C9.245824,1171.625000 17.625420,1179.111084 25.712246,1186.901123 
	C49.912724,1210.213257 73.981171,1233.662354 98.135063,1257.022949 
	C116.665306,1274.944702 135.232849,1292.828125 153.810532,1310.700684 
	C166.865585,1323.260254 179.965363,1335.773315 193.022583,1348.653564 
	C129.074326,1349.000000 65.148659,1349.000000 1.000000,1349.000000 
	C1.000000,1287.645874 1.000000,1226.291626 1.000019,1164.468628 
z"/>
<path fill="#FFFFFF" opacity="1.000000" stroke="none" 
	d="
M893.988770,186.008698 
	C878.238892,170.802063 862.479980,155.604797 846.745728,140.382019 
	C842.919067,136.679779 839.202393,132.863983 835.385437,129.151474 
	C822.880676,116.988846 810.378113,104.823753 797.828247,92.707779 
	C779.915405,75.414200 761.978088,58.145855 744.019531,40.899731 
	C730.380371,27.801624 716.691772,14.755001 703.012573,1.342730 
	C766.925659,1.000000 830.851318,1.000000 895.000000,1.000000 
	C895.000000,62.354046 895.000000,123.708366 894.747498,185.569519 
	C894.326233,186.053802 894.157532,186.031250 893.988770,186.008698 
z"/>
<path fill="#FFFFFF" opacity="1.000000" stroke="none" 
	d="
M192.531342,1.000001 
	C186.611542,7.407445 180.314240,13.908936 173.818146,20.205336 
	C151.111908,42.213615 128.360474,64.175438 105.581970,86.108971 
	C80.173386,110.575027 54.715000,134.989349 29.281416,159.429459 
	C20.285154,168.074310 11.298098,176.728745 1.900081,185.692444 
	C1.493328,186.006088 1.000000,186.000000 1.000000,186.000000 
	C1.000000,124.404953 1.000000,62.809906 1.000000,1.000000 
	C64.687401,1.000000 128.375046,1.000000 192.531342,1.000001 
z"/>
<path fill="#FFFFFF" opacity="1.000000" stroke="none" 
	d="
M703.468689,1349.000000 
	C710.123413,1341.891357 717.161499,1334.694702 724.386230,1327.690430 
	C746.009583,1306.727051 767.696350,1285.828857 789.377258,1264.924683 
	C807.101807,1247.835205 824.847046,1230.767334 842.594849,1213.701904 
	C859.621704,1197.329712 876.663513,1180.973022 894.099243,1164.278320 
	C894.666504,1163.964722 894.833252,1163.982300 895.000000,1164.000000 
	C895.000000,1225.595093 895.000000,1287.190063 895.000000,1349.000000 
	C831.312622,1349.000000 767.624939,1349.000000 703.468689,1349.000000 
z"/>
<path fill="#A24D3D" opacity="1.000000" stroke="none" 
	d="
M1.000000,186.465012 
	C1.000000,186.000000 1.493328,186.006088 1.738962,185.982742 
	C1.985242,349.926514 1.985434,513.893616 1.991037,677.860718 
	C1.991116,680.192566 2.058792,682.524353 2.100030,685.303345 
	C1.910985,685.747925 1.716830,685.745361 1.261338,685.871460 
	C1.000000,519.643311 1.000000,353.286682 1.000000,186.465012 
z"/>
<path fill="#A14B3B" opacity="1.000000" stroke="none" 
	d="
M895.000000,1163.531372 
	C894.833252,1163.982300 894.666504,1163.964722 894.250488,1163.981689 
	C894.004456,1007.201416 894.005737,850.386353 894.029968,693.571289 
	C894.030273,691.259705 894.315552,688.948120 894.733948,686.318237 
	C895.000000,845.020935 895.000000,1004.041809 895.000000,1163.531372 
z"/>
<path fill="#A14B3B" opacity="1.000000" stroke="none" 
	d="
M893.982666,186.477020 
	C894.157532,186.031250 894.326233,186.053802 894.747498,186.038177 
	C895.000000,278.687561 895.000000,371.375122 895.000000,464.531342 
	C894.825012,464.993103 894.650085,464.986206 894.221558,464.911011 
	C893.970825,372.210236 893.973694,279.577789 893.982666,186.477020 
z"/>
<path fill="#FDFCFC" opacity="1.000000" stroke="none" 
	d="
M871.323364,995.000244 
	C871.323364,1046.499146 871.294312,1097.498047 871.388733,1148.496704 
	C871.395020,1151.905273 870.507935,1154.264648 867.963196,1156.706299 
	C818.086365,1204.562500 768.323669,1252.537720 718.530396,1300.481079 
	C710.612732,1308.104736 702.745178,1315.784668 694.647522,1323.213013 
	C693.130432,1324.604858 690.628662,1325.633545 688.580505,1325.635010 
	C528.250916,1325.745239 367.921295,1325.746826 207.591766,1325.625366 
	C205.409027,1325.623779 202.700958,1324.502075 201.121552,1322.984009 
	C144.803131,1268.851440 88.671425,1214.524170 32.235012,1160.515381 
	C26.728344,1155.245605 24.450470,1150.210327 24.487186,1142.531860 
	C24.813108,1074.368286 24.676683,1006.202576 24.676689,938.037476 
	C24.676689,936.079163 24.676689,934.120911 24.676689,931.662170 
	C108.869774,931.662170 192.569427,931.662170 276.269073,931.662170 
	C276.397125,931.332642 276.525208,931.003052 276.653259,930.673523 
	C274.999725,929.422485 273.298676,928.229004 271.700348,926.910950 
	C261.532196,918.526611 262.177551,904.582397 274.047760,898.984436 
	C282.591309,894.955322 292.225555,892.740906 301.615356,891.112610 
	C318.872223,888.120117 333.804169,881.539307 344.264618,867.010437 
	C346.320862,864.154419 350.602997,861.108337 347.042084,856.681824 
	C344.245667,853.205750 337.582764,853.280579 332.668274,855.489258 
	C322.698517,859.969849 312.820953,865.202759 302.330566,867.834229 
	C290.182709,870.881470 277.458191,872.066711 264.906250,872.930359 
	C254.528976,873.644470 249.757858,866.695923 253.602493,856.960510 
	C257.293152,847.614929 262.061890,838.695068 266.402222,829.492065 
	C265.869995,829.467407 264.312439,829.333252 262.754822,829.332520 
	C236.422104,829.319580 210.088867,829.244873 183.757233,829.413391 
	C180.082687,829.436829 177.613922,828.268555 175.088516,825.732422 
	C126.051651,776.488342 76.910385,727.348145 27.934263,678.043884 
	C26.107534,676.204956 24.810556,672.927612 24.808105,670.319153 
	C24.661354,513.989563 24.687853,357.659851 24.604315,201.330170 
	C24.602465,197.869995 25.603695,195.481491 28.091314,193.099182 
	C65.983765,156.811005 103.789001,120.431755 141.616989,84.076271 
	C161.190033,65.265129 180.798096,46.490231 200.306793,27.612637 
	C202.878937,25.123701 205.537003,24.183037 209.147629,24.185101 
	C368.310577,24.276100 527.473572,24.278517 686.636475,24.178909 
	C690.645386,24.176401 693.445679,25.438677 696.258545,28.151390 
	C744.333740,74.514824 792.489319,120.794922 840.623352,167.097321 
	C849.865662,175.987961 859.192139,184.795670 868.233398,193.886749 
	C869.877197,195.539536 871.192932,198.381287 871.197327,200.676971 
	C871.348450,279.508148 871.324158,358.339722 871.315430,437.171234 
	C871.315308,438.488525 871.198669,439.805817 871.110718,441.666351 
	C786.563477,441.666351 702.183533,441.666351 617.111450,441.666351 
	C621.150269,447.099091 625.249512,451.539795 628.039673,456.689728 
	C630.481323,461.196594 632.691711,466.472168 632.806152,471.458679 
	C633.025085,480.998596 622.734314,488.137573 614.296448,484.329498 
	C606.109375,480.634674 597.655762,479.844513 589.060852,479.386688 
	C565.003418,478.105225 541.369019,474.948608 519.113647,464.983704 
	C518.879150,464.878693 518.528015,465.034088 517.232849,465.181763 
	C518.773743,468.690521 519.791321,472.203613 521.695435,475.142334 
	C531.404724,490.127258 543.405762,502.982635 558.521484,512.639038 
	C573.514587,522.217041 588.662415,531.555359 603.845154,540.830505 
	C605.388489,541.773315 607.637573,541.838684 609.559998,541.841858 
	C644.059143,541.898804 678.558716,541.822266 713.056824,542.012817 
	C715.510254,542.026428 718.579224,543.259521 720.310242,544.982361 
	C769.569702,594.006592 818.671875,643.188843 867.902283,692.242371 
	C870.513000,694.843689 871.390747,697.421021 871.387817,700.985901 
	C871.307068,798.823975 871.323303,896.662109 871.323364,995.000244 
M329.006012,795.609741 
	C332.228027,794.273560 335.490875,793.027039 338.663116,791.581665 
	C344.394958,788.970093 347.869995,784.533813 348.628967,778.237488 
	C349.098358,774.343384 349.232117,770.408752 349.458282,767.294312 
	C338.915405,765.809631 328.713776,764.702515 318.644775,762.867737 
	C307.303619,760.801086 296.259338,759.768616 285.604156,765.623779 
	C283.794067,766.618469 281.450806,766.880859 279.324188,767.016724 
	C273.006836,767.420166 268.376434,763.403503 269.064850,757.126038 
	C269.593384,752.306580 271.080383,747.281799 273.386383,743.022461 
	C282.583771,726.034302 297.440918,715.031799 313.760193,705.447327 
	C330.513214,695.607971 346.911774,685.157410 363.337585,674.772156 
	C370.518707,670.231873 376.076111,663.905273 379.537109,656.174255 
	C381.301147,652.233826 381.672668,647.669922 382.673615,643.387878 
	C382.097534,643.151428 381.521454,642.915039 380.945343,642.678589 
	C379.159943,643.821045 377.346344,644.922058 375.593597,646.112610 
	C362.760925,654.829651 348.660736,660.022034 333.103180,660.053711 
	C325.006226,660.070190 316.918610,658.457397 308.803619,658.085938 
	C303.748474,657.854553 299.014160,657.584106 296.467743,652.436523 
	C293.922119,647.290649 295.665527,642.610107 298.855682,638.493652 
	C304.910431,630.680969 311.739502,623.628662 320.727814,619.124634 
	C327.556152,615.702881 334.576569,612.657776 341.347321,609.129944 
	C347.371979,605.990845 353.519379,602.897400 358.983948,598.920044 
	C366.261078,593.623352 370.773193,586.155029 373.421661,576.377686 
	C368.827698,579.308838 365.276245,581.741577 361.569641,583.909119 
	C349.640625,590.884888 336.472015,592.100525 323.022827,592.150940 
	C306.210785,592.213928 291.677246,597.166138 281.242523,611.409424 
	C278.856506,614.666321 275.462006,617.491943 271.967102,619.563721 
	C265.137573,623.612122 258.090851,620.491577 255.935379,612.849976 
	C255.267365,610.481689 254.744705,607.899536 254.957947,605.486206 
	C255.776672,596.219788 256.719238,586.954590 257.980591,577.738892 
	C262.486389,544.819214 277.011780,518.679810 307.662689,502.850861 
	C319.152954,496.916931 330.006287,489.655701 340.770172,482.433533 
	C353.513672,473.883087 363.808716,462.779938 371.392303,449.398010 
	C373.947723,444.888763 375.939423,439.893433 373.846832,434.620667 
	C368.321075,438.506714 363.531219,443.512756 357.690033,445.663391 
	C342.634827,451.206512 326.827911,454.614197 310.711456,452.764557 
	C300.733398,451.619415 291.670044,452.492432 282.610931,456.777496 
	C271.995178,461.798859 261.132385,454.100616 261.732758,442.339569 
	C262.134979,434.458984 266.672180,428.723083 271.849640,423.417969 
	C285.323486,409.611816 300.883362,398.352844 317.352692,388.598999 
	C339.928070,375.229004 363.200043,363.039856 385.964691,349.980713 
	C390.309021,347.488556 394.057617,343.634186 397.399414,339.812256 
	C400.525452,336.237152 399.175598,333.486481 394.476715,333.219696 
	C391.905762,333.073792 389.023254,333.330444 386.720062,334.374023 
	C371.416077,341.308411 355.410645,339.633026 339.564209,338.090027 
	C327.736481,336.938263 324.506653,328.022217 331.814972,318.541992 
	C339.566528,308.486847 349.947052,302.079163 361.432190,297.187531 
	C367.850830,294.453766 374.302155,291.781189 380.611908,288.811646 
	C387.922394,285.371124 391.017822,279.363678 389.026794,272.748627 
	C384.301636,273.079437 379.511139,273.584961 374.710815,273.708923 
	C368.343018,273.873413 361.574890,274.172089 358.165802,267.267120 
	C354.711914,260.271393 358.660431,254.554779 362.886841,249.588425 
	C374.405212,236.053436 388.174103,225.581833 405.376526,220.155151 
	C406.655182,219.751801 407.882172,219.184692 409.133179,218.693741 
	C405.781219,217.727493 402.625458,217.593658 399.490234,217.264160 
	C396.191345,216.917465 392.793182,216.786667 389.646240,215.857513 
	C379.397003,212.831451 376.773315,203.306229 384.461639,195.964905 
	C389.597656,191.060715 395.639496,187.104813 401.278290,182.727570 
	C408.704834,176.962585 416.133698,171.200623 423.727112,165.308884 
	C417.821808,160.181580 412.754486,156.124023 408.106506,151.632492 
	C404.697113,148.337875 403.109802,144.065094 404.939972,139.313629 
	C406.702789,134.737000 410.552277,132.672485 415.174347,132.713425 
	C422.103455,132.774811 425.433624,128.854492 427.066650,122.878822 
	C430.086365,111.828865 433.149780,100.784660 435.835571,89.651352 
	C438.696533,77.791962 441.153900,75.841187 453.690735,76.956818 
	C454.132111,78.815353 454.612518,80.730591 455.040253,82.657524 
	C457.417725,93.367966 459.641113,104.115128 462.198883,114.782188 
	C464.040283,122.461594 466.283112,124.141258 473.888245,125.090828 
	C478.533966,125.670876 482.880920,127.192513 484.598358,132.027344 
	C486.245605,136.664413 484.807190,140.890045 481.415497,144.385818 
	C479.563812,146.294312 477.700562,148.227219 475.620514,149.867630 
	C473.808380,151.296753 471.684692,152.330841 469.698669,153.539459 
	C470.125793,154.539352 470.552917,155.539230 470.980042,156.539108 
	C474.995667,157.448090 478.986084,158.495499 483.033112,159.231857 
	C488.369659,160.202805 493.770538,161.048950 495.946716,167.016891 
	C498.066071,172.829056 495.400421,177.484314 491.532196,181.430481 
	C487.604553,185.437286 483.292542,189.067276 478.673248,193.297821 
	C480.230194,195.446747 481.519897,198.066971 483.544220,199.855835 
	C488.642487,204.361038 494.164215,208.383438 499.340698,212.804855 
	C503.742859,216.564911 508.528503,220.123779 512.031433,224.635788 
	C518.766418,233.310883 515.082397,243.938034 504.782593,247.565811 
	C503.076721,248.166656 501.523376,249.200439 499.296722,250.343674 
	C501.245514,251.386536 502.151428,251.808624 502.994537,252.331924 
	C514.939819,259.746490 526.281311,267.922241 534.283936,279.759735 
	C541.621155,290.613007 537.406189,299.320404 524.400452,300.635132 
	C522.603088,300.816803 520.756531,300.537201 518.934204,300.441925 
	C514.352051,300.202271 509.770844,299.945923 505.238251,299.698914 
	C504.553223,308.013519 507.175964,312.411865 514.903748,315.983948 
	C526.060242,321.140991 537.616821,325.530426 548.402161,331.358612 
	C555.742676,335.325287 562.943726,340.357971 568.627502,346.399902 
	C577.959106,356.319427 573.927856,369.245575 560.592468,371.783203 
	C552.519348,373.319427 543.817566,372.123474 535.458740,371.427979 
	C526.929749,370.718292 518.482422,369.221039 509.760956,373.345306 
	C511.615082,374.526184 512.924683,375.558411 514.393311,376.255798 
	C517.838867,377.891968 521.245483,379.747040 524.870178,380.847137 
	C548.667664,388.069489 569.124451,401.337463 588.760742,416.042572 
	C591.899109,418.392822 594.919800,419.329285 598.771606,419.319855 
	C670.428589,419.144104 742.085815,419.079681 813.743042,418.996124 
	C823.908997,418.984253 834.075012,419.004608 844.240967,418.983032 
	C845.682007,418.979950 847.122864,418.822754 848.875244,418.718353 
	C848.875244,417.434631 848.875305,416.459595 848.875305,415.484558 
	C848.875488,346.989136 848.906128,278.493652 848.741394,209.998611 
	C848.735962,207.738937 847.270386,204.948044 845.598083,203.311264 
	C831.555115,189.565918 817.277954,176.060165 803.121582,162.430145 
	C764.248657,125.002754 725.431091,87.517624 686.447388,50.206039 
	C684.563782,48.403214 681.303650,47.137058 678.683105,47.134602 
	C524.860168,46.990170 371.037109,46.989868 217.214188,47.137619 
	C214.603302,47.140125 211.400696,48.486580 209.479767,50.281845 
	C195.974197,62.903824 182.731110,75.806717 169.407333,88.623177 
	C129.676910,126.840836 89.920563,165.031738 50.309727,203.372986 
	C48.565052,205.061722 47.255238,208.129074 47.252922,210.555710 
	C47.109711,360.712219 47.110546,510.868866 47.243538,661.025391 
	C47.245724,663.493347 48.380016,666.611267 50.088081,668.331726 
	C94.938805,713.508179 139.954132,758.521118 184.855789,803.647095 
	C187.304398,806.107971 189.755646,806.962524 193.165024,806.948914 
	C224.329117,806.824585 255.497650,806.600403 286.656433,807.025513 
	C297.540527,807.174011 307.728699,806.184326 317.243927,800.456970 
	C320.619293,798.425415 324.588226,797.380066 329.006012,795.609741 
M322.676514,506.172699 
	C317.270477,509.445374 311.942627,512.856384 306.443970,515.965332 
	C288.459503,526.133728 277.136902,541.475525 272.321045,561.307922 
	C269.267029,573.884888 267.400085,586.761169 265.307312,599.553345 
	C264.719757,603.145020 265.217651,606.914246 265.217651,610.602051 
	C265.999023,610.949402 266.780396,611.296814 267.561737,611.644165 
	C269.886139,608.885986 271.919403,605.798035 274.594086,603.436584 
	C280.649261,598.090515 286.501556,592.216919 293.387634,588.180786 
	C303.216522,582.419739 314.572235,581.771179 325.841431,581.838440 
	C339.311096,581.918823 351.925964,579.154785 362.931244,570.769653 
	C365.546234,568.777222 368.572845,567.194824 371.618774,565.923767 
	C379.266663,562.732422 384.812622,566.752930 383.838440,574.996460 
	C383.338531,579.226379 382.179108,583.525940 380.496857,587.441284 
	C375.070038,600.072144 365.556244,608.882874 353.365448,614.915771 
	C343.235077,619.929016 332.865784,624.497131 322.964996,629.924133 
	C315.705902,633.903320 310.083649,639.929810 305.816498,647.138977 
	C311.041931,647.778687 315.671021,648.100647 320.200867,648.951111 
	C329.564301,650.708923 339.033539,650.856812 347.827820,647.496338 
	C357.216125,643.908936 366.015381,638.782471 375.079681,634.344055 
	C384.655975,629.654907 392.229736,634.298218 392.379242,644.929871 
	C392.578766,659.122314 385.504547,669.974609 375.226013,678.429504 
	C358.229370,692.410583 339.653961,704.174622 319.959625,714.088196 
	C307.128845,720.546753 295.963043,729.182861 287.214935,740.552979 
	C283.641663,745.197266 281.358185,750.833984 278.487915,756.019226 
	C284.475830,754.938904 289.084442,752.906128 293.907288,751.888428 
	C305.785065,749.382141 317.360413,752.451660 329.038971,754.243469 
	C335.515411,755.237183 342.370270,755.981628 348.734100,754.919128 
	C356.330414,753.650879 359.945404,755.179871 359.890900,763.126648 
	C359.846680,769.579407 359.202118,776.084412 358.166168,782.459412 
	C356.921570,790.118408 352.419739,795.836609 345.634674,799.566345 
	C342.585388,801.242554 339.238037,802.366333 336.105804,803.903564 
	C318.670105,812.460266 300.886261,820.401550 283.964355,829.879639 
	C271.731506,836.731384 266.620789,849.386169 262.574066,862.951538 
	C285.582550,862.777466 306.885132,858.502380 326.349640,847.178467 
	C333.256989,843.159912 340.121796,842.765381 347.435455,844.989746 
	C356.364288,847.705383 362.270172,857.823730 356.281097,867.698486 
	C344.222839,887.580017 326.121155,897.379150 303.850922,901.129333 
	C296.351807,902.392151 288.752075,903.912781 281.668793,906.569702 
	C273.120605,909.776184 272.909485,914.712585 280.127441,920.258179 
	C282.894440,922.384033 285.603210,924.627075 288.089020,927.070496 
	C302.417297,941.153625 299.916748,954.419128 281.787842,963.120239 
	C273.724030,966.990479 265.866180,971.444092 258.404358,976.373779 
	C249.854095,982.022461 242.083252,989.052185 238.286545,998.746094 
	C232.780258,1012.804871 228.001968,1027.183594 223.699005,1041.659424 
	C222.245804,1046.548218 222.721741,1052.193970 223.248672,1057.399414 
	C223.466217,1059.548584 225.795334,1062.458862 227.802307,1063.138794 
	C229.361481,1063.666992 232.137222,1061.555908 233.960190,1060.101562 
	C236.015823,1058.461548 237.375565,1055.945190 239.440155,1054.321289 
	C268.592834,1031.392212 299.282715,1012.400330 338.249146,1011.687073 
	C357.047729,1011.342896 374.174896,1005.566895 387.179565,990.499207 
	C390.889801,986.200439 396.023895,982.906006 400.987671,979.965820 
	C408.615540,975.447571 414.379028,979.053772 414.309631,987.902527 
	C413.955444,1033.064331 414.399048,1078.232666 414.002991,1123.393799 
	C413.871918,1138.336426 412.629608,1153.331055 410.863251,1168.179077 
	C409.277008,1181.513428 405.407867,1194.303223 395.068359,1203.978271 
	C390.812622,1207.960571 386.500458,1211.884155 382.154724,1215.768188 
	C369.332611,1227.228149 357.205994,1239.210571 348.296844,1254.205078 
	C336.963379,1273.279785 324.444061,1291.460327 303.587494,1303.864136 
	C400.652100,1303.864136 496.286743,1303.864136 593.183411,1303.864136 
	C590.839417,1302.710205 589.477905,1302.219116 588.311340,1301.437256 
	C579.795471,1295.728882 570.121826,1291.130859 563.106018,1283.944336 
	C552.185242,1272.758057 540.915771,1262.531982 527.212708,1254.871216 
	C520.880981,1251.331543 514.786621,1247.000732 509.474060,1242.070190 
	C489.878571,1223.883545 481.755402,1200.366821 481.070587,1174.409058 
	C480.248993,1143.266724 480.700317,1112.090576 480.625763,1080.929077 
	C480.594238,1067.763184 480.390259,1054.591431 480.701172,1041.432739 
	C480.981689,1029.560425 488.806976,1025.526123 498.944672,1031.654419 
	C499.798340,1032.170532 500.681885,1032.675049 501.427429,1033.326904 
	C512.954956,1043.405029 526.476135,1046.202881 541.424927,1045.148071 
	C552.341309,1044.377686 563.466614,1043.516968 574.261292,1044.759399 
	C592.164734,1046.820190 607.409058,1056.172241 622.380127,1065.611450 
	C634.761292,1073.417847 646.962036,1081.526978 659.568237,1088.949219 
	C662.988953,1090.963257 667.589111,1090.974121 671.647949,1091.904297 
	C672.221924,1087.614014 674.168823,1082.954834 673.132202,1079.097290 
	C668.657104,1062.445801 663.982666,1045.777832 657.969299,1029.641724 
	C655.293823,1022.462524 650.220703,1015.502563 644.542908,1010.285583 
	C637.291382,1003.622681 628.691101,998.164917 620.015869,993.376892 
	C607.635254,986.543884 598.440674,969.153015 613.557556,957.075867 
	C613.941406,956.769104 614.218262,956.328064 614.542725,955.947693 
	C625.107422,943.562805 622.735840,935.258972 607.081665,931.111450 
	C600.189758,929.285339 593.006897,928.589294 586.025635,927.062195 
	C565.078186,922.479980 547.946228,912.372559 537.732483,892.713684 
	C534.112854,885.746826 536.165588,878.119385 542.883606,874.076538 
	C550.690247,869.378601 558.955322,868.690186 567.050415,873.358459 
	C582.142456,882.061707 598.328857,887.209778 615.640503,888.800354 
	C620.990295,889.291870 626.376953,889.383606 632.062622,889.674622 
	C627.366150,871.065247 617.193115,857.835938 600.794617,849.970703 
	C585.216858,842.499207 569.465515,835.339600 553.510254,828.718140 
	C535.368469,821.189331 533.189880,803.628723 537.086426,788.056763 
	C538.507690,782.377014 544.318115,780.998169 549.028320,784.602356 
	C551.000427,786.111389 552.679810,788.003723 554.486938,789.727295 
	C563.220337,798.056152 573.588623,802.209595 585.686829,802.004761 
	C589.185669,801.945557 592.686401,801.985107 596.186218,801.998108 
	C603.560364,802.025391 610.211548,804.023804 616.176392,808.579163 
	C619.265015,810.937927 622.882935,812.603577 627.086182,815.065308 
	C626.944946,812.402100 627.097351,810.901794 626.758179,809.522278 
	C619.242859,778.955688 603.704773,754.739868 574.240845,740.621338 
	C554.235352,731.035095 535.795349,718.664612 518.612915,704.608398 
	C511.700439,698.953552 506.774200,691.484375 503.981873,682.925781 
	C501.520325,675.380981 505.864349,670.504578 513.577026,672.350464 
	C519.029846,673.655457 524.438171,675.590820 529.495361,678.017822 
	C542.226379,684.127441 555.167908,685.304626 568.833496,681.738586 
	C576.484741,679.742004 584.274658,679.877258 591.916626,682.777710 
	C594.044617,683.585388 596.648071,683.140198 599.033447,683.269775 
	C599.278259,682.696899 599.523071,682.123962 599.767944,681.551086 
	C598.110474,679.161499 596.769836,676.447937 594.727844,674.451599 
	C590.810547,670.621765 586.933472,666.436096 582.261719,663.752563 
	C569.025391,656.149292 555.513550,648.998108 541.889709,642.104614 
	C527.543701,634.845642 517.366638,624.037109 511.744080,608.982544 
	C507.809418,598.447388 513.223938,589.552124 524.486145,588.959045 
	C528.616028,588.741577 533.024048,589.993652 537.004883,591.415833 
	C554.684875,597.732117 572.275208,604.301758 589.855164,610.893860 
	C595.582581,613.041565 601.135437,615.652283 606.850525,617.835693 
	C611.630432,619.661804 616.426331,621.703064 621.405273,622.682190 
	C626.879333,623.758606 628.973022,621.524902 628.059753,615.998413 
	C626.651245,607.474609 624.850403,599.010986 623.044067,590.558533 
	C618.328613,568.493896 605.287170,552.756653 586.012695,541.609558 
	C575.069641,535.280884 564.282593,528.665710 553.616333,521.879150 
	C536.617432,511.063354 523.102844,496.702271 512.298462,479.794006 
	C508.357697,473.626953 506.275726,466.780945 507.674835,459.354950 
	C508.899414,452.855286 513.503845,450.587646 519.543579,453.335815 
	C522.720337,454.781250 525.752075,456.569153 528.985413,457.862152 
	C547.452332,465.246948 566.888550,467.716827 586.546387,468.992615 
	C596.811646,469.658813 607.168701,469.554047 616.785400,474.252716 
	C620.298645,475.969269 623.597717,473.143463 622.661926,469.200592 
	C622.031372,466.543823 620.640076,463.886230 618.986450,461.680847 
	C594.344238,428.816223 562.361694,405.875061 523.996033,391.538177 
	C518.262817,389.395752 512.574951,386.935699 507.274017,383.908356 
	C504.232300,382.171204 501.555206,379.313019 499.529785,376.393494 
	C496.590759,372.157104 497.749542,365.892426 504.144226,363.697571 
	C515.216125,359.897369 526.247925,359.723022 537.623901,361.405731 
	C543.671326,362.300171 549.860168,362.763092 555.954773,362.549957 
	C558.316650,362.467346 561.685364,360.455109 562.562012,358.438110 
	C563.250854,356.853455 561.439575,353.101135 559.651306,351.718903 
	C553.766968,347.170929 547.707581,342.642120 541.124451,339.253998 
	C531.092407,334.090820 520.529419,329.967896 510.260925,325.252899 
	C500.532166,320.785706 494.700195,313.495331 494.633698,302.392212 
	C494.573730,292.380005 498.900787,288.729858 508.935028,289.450989 
	C514.939026,289.882477 520.999390,289.530212 528.185425,289.530212 
	C526.060669,286.381775 524.716858,283.707764 522.758423,281.606628 
	C514.189697,272.413391 504.715424,264.351105 493.112335,259.127686 
	C485.120880,255.530121 484.180054,249.356628 491.065735,243.836319 
	C494.010406,241.475571 497.528015,239.801117 500.871948,237.973343 
	C505.820312,235.268600 506.432098,233.350174 502.538177,229.202820 
	C499.609009,226.083023 495.917755,223.693069 492.706207,220.821106 
	C485.428589,214.312881 477.526581,208.317139 471.222076,200.961426 
	C465.514557,194.302185 467.225952,188.495697 474.168549,183.030807 
	C476.782257,180.973389 479.369507,178.859573 481.774780,176.567856 
	C483.480988,174.942230 484.861816,172.975082 486.924652,170.522079 
	C481.744568,169.631729 477.658081,169.097672 473.652802,168.200958 
	C467.839111,166.899368 462.986542,164.186813 461.364349,157.887863 
	C459.713776,151.478699 463.046844,147.062317 467.535736,143.140839 
	C469.940063,141.040405 472.235016,138.814819 474.287079,136.916138 
	C469.139771,134.930237 463.582947,134.266251 460.379547,131.168533 
	C456.544983,127.460487 453.938965,121.932983 452.210419,116.725594 
	C449.664856,109.056740 448.365540,100.974197 446.311920,92.102264 
	C445.684784,94.141533 445.280670,95.328537 444.954376,96.536568 
	C442.267456,106.484406 439.955750,116.551628 436.817322,126.354408 
	C433.643280,136.268539 427.619354,143.355850 415.965729,143.058029 
	C415.803650,143.053909 415.629761,143.511810 414.947144,144.493927 
	C419.393921,148.034271 423.957123,151.545013 428.383789,155.220215 
	C435.130951,160.821991 435.722107,166.233490 429.695892,172.674973 
	C425.510468,177.148804 420.810211,181.220215 415.948303,184.962662 
	C409.361023,190.033264 402.347260,194.546326 395.630798,199.454987 
	C393.755096,200.825760 392.282227,202.747696 389.542419,205.506439 
	C394.117310,206.144547 397.173431,206.534027 400.217285,207.003098 
	C406.433105,207.960968 412.858337,208.270370 418.797729,210.125854 
	C425.678192,212.275330 426.833649,219.006699 421.367340,223.749100 
	C418.589783,226.158829 414.933655,227.971252 411.370636,228.987595 
	C396.659576,233.183899 384.714264,241.671860 374.152649,252.318024 
	C371.318207,255.175140 369.230896,258.773468 366.361572,262.620148 
	C374.686554,262.620148 381.783844,262.608490 388.881042,262.623413 
	C395.956909,262.638306 399.590088,266.032227 400.120331,273.082916 
	C400.952301,284.146027 395.893005,292.978088 385.365387,297.971527 
	C376.957489,301.959534 368.238464,305.295898 359.862335,309.345123 
	C351.312836,313.478210 343.693298,318.900330 338.005310,328.213715 
	C352.859802,328.328857 366.667328,330.987213 380.356354,325.765503 
	C385.312103,323.875092 391.072815,322.781677 396.311188,323.212006 
	C408.118195,324.181824 413.300537,335.321045 406.348114,345.000214 
	C402.567322,350.263855 397.513367,355.209686 391.962860,358.483276 
	C379.817780,365.646240 366.778992,371.277313 354.484650,378.207214 
	C329.525146,392.275940 304.988953,407.073608 283.643677,426.440826 
	C279.637085,430.076111 276.158234,434.496582 273.297852,439.091370 
	C272.153412,440.929688 273.339813,444.219025 273.465271,446.847870 
	C275.761078,446.706177 278.361023,447.216400 280.300781,446.311493 
	C289.341400,442.093933 298.679474,441.164856 308.532379,441.965912 
	C330.078613,443.717651 350.825562,442.043091 367.429443,425.667816 
	C368.135712,424.971283 368.957855,424.378784 369.778107,423.813385 
	C375.669037,419.752960 379.530701,420.712555 382.447998,427.155151 
	C387.533661,438.386414 384.459015,448.789032 378.278748,458.365021 
	C370.275299,470.765961 360.356049,481.579041 348.134033,489.985931 
	C340.053650,495.544006 331.607727,500.570648 322.676514,506.172699 
M845.567322,1146.906006 
	C848.228882,1145.006592 848.950500,1142.490723 848.948608,1139.199951 
	C848.864502,996.048767 848.865906,852.897522 848.940857,709.746399 
	C848.942566,706.493896 848.009644,704.215698 845.703125,701.916077 
	C800.856689,657.206482 756.116760,612.390076 711.212952,567.738342 
	C709.357422,565.893250 706.129395,564.505249 703.525269,564.479492 
	C678.863647,564.236145 654.198669,564.330383 629.534668,564.345703 
	C628.112610,564.346619 626.690674,564.507324 625.470215,564.581421 
	C628.212219,573.117737 631.242493,581.203430 633.361145,589.521362 
	C635.531677,598.042847 637.028503,606.756653 638.421753,615.450195 
	C640.079163,625.792236 633.880188,633.374084 623.411255,633.127197 
	C618.063904,633.001099 612.099609,632.165955 607.570129,629.605957 
	C596.846680,623.544983 585.084473,620.720947 573.719238,616.606140 
	C559.040527,611.291626 544.626526,605.245544 529.941040,599.951233 
	C527.573425,599.097717 524.205933,600.097046 521.711365,601.183228 
	C521.110901,601.444641 521.680237,605.660522 522.511353,607.737793 
	C528.220276,622.006165 539.612000,630.170959 553.209229,635.983276 
	C566.996826,641.876892 580.653198,648.208923 592.056274,658.117615 
	C597.991699,663.275208 603.862366,669.070618 607.898743,675.710693 
	C613.169312,684.381165 607.386902,693.402283 597.181091,693.961426 
	C594.429382,694.112183 591.376221,693.858093 588.892456,692.788635 
	C582.885254,690.202209 576.851440,690.283813 570.812683,691.835388 
	C555.018555,695.893311 539.846985,694.694397 525.201233,687.317383 
	C522.351624,685.882019 519.252747,684.941528 516.268799,683.772827 
	C515.949829,684.198303 515.630798,684.623779 515.311768,685.049255 
	C519.241821,689.485352 522.487183,694.916809 527.226257,698.176880 
	C543.513489,709.381348 559.477356,721.557251 577.120117,730.179810 
	C608.557800,745.544434 626.868225,770.226196 635.789368,803.017395 
	C636.862427,806.961670 637.242126,811.236145 637.113647,815.331543 
	C636.934937,821.030151 633.278015,824.692871 627.741333,823.918518 
	C622.633545,823.204224 616.940735,821.869507 612.972290,818.868591 
	C605.942383,813.552551 598.571411,811.830933 590.130920,812.305603 
	C573.753540,813.226685 559.217102,808.654785 547.087036,797.280334 
	C546.929688,797.132812 546.512939,797.261963 546.213806,797.261963 
	C544.751038,808.985596 548.125427,814.936584 558.743652,819.616760 
	C573.330872,826.046448 587.963745,832.380188 602.437927,839.056519 
	C621.729248,847.954712 634.824341,862.368225 641.113220,882.924927 
	C644.447693,893.824524 640.556152,900.382263 629.207092,899.949951 
	C618.775269,899.552612 608.053711,898.989197 598.082703,896.239746 
	C585.711792,892.828430 573.906738,887.271545 562.011841,882.273438 
	C557.178711,880.242554 550.098022,880.256104 547.568115,883.608521 
	C544.125061,888.170959 548.526428,891.148560 550.598572,893.994202 
	C561.238525,908.605469 576.361755,915.192139 593.811707,918.069580 
	C602.733032,919.540649 611.769287,921.796326 620.039673,925.356018 
	C630.189941,929.724792 634.046265,940.404907 629.602844,950.535522 
	C627.058105,956.337219 623.018127,961.680176 618.806580,966.490051 
	C615.544556,970.215454 615.086487,973.584229 617.676086,977.179810 
	C619.557495,979.791931 622.146606,982.068420 624.831848,983.886536 
	C628.812073,986.581604 633.273315,988.556702 637.325867,991.156250 
	C652.738953,1001.042908 664.778442,1013.659058 670.254150,1031.713379 
	C672.711304,1039.814819 676.439453,1047.575928 678.379517,1055.777954 
	C680.888306,1066.384766 683.261414,1077.234253 683.704163,1088.060547 
	C684.153748,1099.055298 675.434021,1104.843262 664.725464,1102.130005 
	C660.906494,1101.162354 657.029358,1099.747192 653.684692,1097.706909 
	C641.901123,1090.519165 630.341553,1082.964355 618.688660,1075.562012 
	C604.052856,1066.264771 589.280579,1056.841919 571.679321,1054.765015 
	C562.370117,1053.666504 552.751831,1054.642212 543.314758,1055.289429 
	C525.398682,1056.518188 508.795837,1053.729370 494.826416,1041.383423 
	C493.949951,1040.608765 492.644623,1040.319336 491.264313,1039.676147 
	C491.053284,1041.271484 490.809265,1042.247437 490.811615,1043.222778 
	C490.917450,1087.211670 490.165131,1131.226318 491.460236,1175.180786 
	C492.421967,1207.822021 506.847870,1233.535034 537.145386,1248.859863 
	C548.078430,1254.390137 557.263062,1262.389282 565.534180,1271.446533 
	C569.225708,1275.488892 572.811646,1279.875488 577.248169,1282.946289 
	C595.720520,1295.732178 616.212036,1302.818604 638.847656,1302.977539 
	C652.345520,1303.072266 665.847107,1303.126953 679.340698,1302.868408 
	C681.662964,1302.823975 684.484497,1301.683594 686.174927,1300.092773 
	C700.242249,1286.854004 714.097534,1273.390259 728.018311,1259.995728 
	C767.021240,1222.467163 806.024841,1184.939087 845.567322,1146.906006 
M270.276978,1044.706421 
	C259.494568,1051.364624 249.185226,1058.466187 240.648605,1068.133789 
	C231.936951,1077.999512 217.692627,1074.768188 213.910034,1062.125732 
	C212.294739,1056.726807 211.245560,1050.276123 212.642929,1045.022705 
	C216.942032,1028.860107 222.019669,1012.847046 227.893280,997.187927 
	C230.383743,990.548279 234.671265,983.940247 239.812286,979.087341 
	C247.599686,971.736328 256.782593,965.843323 265.511261,959.522400 
	C268.103943,957.644897 271.162140,956.410217 274.630737,954.545654 
	C198.274246,954.545654 122.787537,954.545654 47.279556,954.545654 
	C47.210770,955.627563 47.131763,956.290710 47.131695,956.953796 
	C47.125225,1017.943298 47.095062,1078.932861 47.248081,1139.921875 
	C47.253418,1142.048950 48.575661,1144.702271 50.145393,1146.218872 
	C103.439430,1197.710571 156.824142,1249.108643 210.294800,1300.416992 
	C211.753952,1301.817139 214.294861,1302.747070 216.344406,1302.770752 
	C232.672745,1302.959473 249.011307,1303.176636 265.332794,1302.792480 
	C282.055084,1302.398804 297.393707,1297.742188 310.290405,1286.405029 
	C320.549347,1277.386719 328.589050,1266.600098 335.558594,1255.022949 
	C343.935699,1241.107910 353.270355,1228.028564 365.369019,1217.070435 
	C371.537415,1211.483643 377.458374,1205.603394 383.853302,1200.291626 
	C392.040588,1193.491333 397.524414,1185.020142 398.943390,1174.642090 
	C401.079315,1159.020752 403.418854,1143.288452 403.656708,1127.572998 
	C404.322388,1083.591064 403.954773,1039.593384 403.994598,995.601868 
	C403.996033,994.016174 403.994781,992.430481 403.994781,989.703491 
	C400.867615,992.270386 398.603699,994.128235 396.340302,995.986694 
	C389.429016,1001.661255 383.040192,1008.191040 375.482666,1012.807739 
	C364.510437,1019.510437 351.781799,1021.383606 339.083893,1022.041260 
	C324.568329,1022.792847 310.221832,1023.866638 297.023743,1030.836670 
	C288.357086,1035.413574 279.593536,1039.807373 270.276978,1044.706421 
z"/>
<path fill="#8D181B" opacity="1.000000" stroke="none" 
	d="
M328.646088,795.747070 
	C324.588226,797.380066 320.619293,798.425415 317.243927,800.456970 
	C307.728699,806.184326 297.540527,807.174011 286.656433,807.025513 
	C255.497650,806.600403 224.329117,806.824585 193.165024,806.948914 
	C189.755646,806.962524 187.304398,806.107971 184.855789,803.647095 
	C139.954132,758.521118 94.938805,713.508179 50.088081,668.331726 
	C48.380016,666.611267 47.245724,663.493347 47.243538,661.025391 
	C47.110546,510.868866 47.109711,360.712219 47.252922,210.555710 
	C47.255238,208.129074 48.565052,205.061722 50.309727,203.372986 
	C89.920563,165.031738 129.676910,126.840836 169.407333,88.623177 
	C182.731110,75.806717 195.974197,62.903824 209.479767,50.281845 
	C211.400696,48.486580 214.603302,47.140125 217.214188,47.137619 
	C371.037109,46.989868 524.860168,46.990170 678.683105,47.134602 
	C681.303650,47.137058 684.563782,48.403214 686.447388,50.206039 
	C725.431091,87.517624 764.248657,125.002754 803.121582,162.430145 
	C817.277954,176.060165 831.555115,189.565918 845.598083,203.311264 
	C847.270386,204.948044 848.735962,207.738937 848.741394,209.998611 
	C848.906128,278.493652 848.875488,346.989136 848.875305,415.484558 
	C848.875305,416.459595 848.875244,417.434631 848.875244,418.718353 
	C847.122864,418.822754 845.682007,418.979950 844.240967,418.983032 
	C834.075012,419.004608 823.908997,418.984253 813.743042,418.996124 
	C742.085815,419.079681 670.428589,419.144104 598.771606,419.319855 
	C594.919800,419.329285 591.899109,418.392822 588.760742,416.042572 
	C569.124451,401.337463 548.667664,388.069489 524.870178,380.847137 
	C521.245483,379.747040 517.838867,377.891968 514.393311,376.255798 
	C512.924683,375.558411 511.615082,374.526184 509.760956,373.345306 
	C518.482422,369.221039 526.929749,370.718292 535.458740,371.427979 
	C543.817566,372.123474 552.519348,373.319427 560.592468,371.783203 
	C573.927856,369.245575 577.959106,356.319427 568.627502,346.399902 
	C562.943726,340.357971 555.742676,335.325287 548.402161,331.358612 
	C537.616821,325.530426 526.060242,321.140991 514.903748,315.983948 
	C507.175964,312.411865 504.553223,308.013519 505.238251,299.698914 
	C509.770844,299.945923 514.352051,300.202271 518.934204,300.441925 
	C520.756531,300.537201 522.603088,300.816803 524.400452,300.635132 
	C537.406189,299.320404 541.621155,290.613007 534.283936,279.759735 
	C526.281311,267.922241 514.939819,259.746490 502.994537,252.331924 
	C502.151428,251.808624 501.245514,251.386536 499.296722,250.343674 
	C501.523376,249.200439 503.076721,248.166656 504.782593,247.565811 
	C515.082397,243.938034 518.766418,233.310883 512.031433,224.635788 
	C508.528503,220.123779 503.742859,216.564911 499.340698,212.804855 
	C494.164215,208.383438 488.642487,204.361038 483.544220,199.855835 
	C481.519897,198.066971 480.230194,195.446747 478.673248,193.297821 
	C483.292542,189.067276 487.604553,185.437286 491.532196,181.430481 
	C495.400421,177.484314 498.066071,172.829056 495.946716,167.016891 
	C493.770538,161.048950 488.369659,160.202805 483.033112,159.231857 
	C478.986084,158.495499 474.995667,157.448090 470.980042,156.539108 
	C470.552917,155.539230 470.125793,154.539352 469.698669,153.539459 
	C471.684692,152.330841 473.808380,151.296753 475.620514,149.867630 
	C477.700562,148.227219 479.563812,146.294312 481.415497,144.385818 
	C484.807190,140.890045 486.245605,136.664413 484.598358,132.027344 
	C482.880920,127.192513 478.533966,125.670876 473.888245,125.090828 
	C466.283112,124.141258 464.040283,122.461594 462.198883,114.782188 
	C459.641113,104.115128 457.417725,93.367966 455.040253,82.657524 
	C454.612518,80.730591 454.132111,78.815353 453.690735,76.956818 
	C441.153900,75.841187 438.696533,77.791962 435.835571,89.651352 
	C433.149780,100.784660 430.086365,111.828865 427.066650,122.878822 
	C425.433624,128.854492 422.103455,132.774811 415.174347,132.713425 
	C410.552277,132.672485 406.702789,134.737000 404.939972,139.313629 
	C403.109802,144.065094 404.697113,148.337875 408.106506,151.632492 
	C412.754486,156.124023 417.821808,160.181580 423.727112,165.308884 
	C416.133698,171.200623 408.704834,176.962585 401.278290,182.727570 
	C395.639496,187.104813 389.597656,191.060715 384.461639,195.964905 
	C376.773315,203.306229 379.397003,212.831451 389.646240,215.857513 
	C392.793182,216.786667 396.191345,216.917465 399.490234,217.264160 
	C402.625458,217.593658 405.781219,217.727493 409.133179,218.693741 
	C407.882172,219.184692 406.655182,219.751801 405.376526,220.155151 
	C388.174103,225.581833 374.405212,236.053436 362.886841,249.588425 
	C358.660431,254.554779 354.711914,260.271393 358.165802,267.267120 
	C361.574890,274.172089 368.343018,273.873413 374.710815,273.708923 
	C379.511139,273.584961 384.301636,273.079437 389.026794,272.748627 
	C391.017822,279.363678 387.922394,285.371124 380.611908,288.811646 
	C374.302155,291.781189 367.850830,294.453766 361.432190,297.187531 
	C349.947052,302.079163 339.566528,308.486847 331.814972,318.541992 
	C324.506653,328.022217 327.736481,336.938263 339.564209,338.090027 
	C355.410645,339.633026 371.416077,341.308411 386.720062,334.374023 
	C389.023254,333.330444 391.905762,333.073792 394.476715,333.219696 
	C399.175598,333.486481 400.525452,336.237152 397.399414,339.812256 
	C394.057617,343.634186 390.309021,347.488556 385.964691,349.980713 
	C363.200043,363.039856 339.928070,375.229004 317.352692,388.598999 
	C300.883362,398.352844 285.323486,409.611816 271.849640,423.417969 
	C266.672180,428.723083 262.134979,434.458984 261.732758,442.339569 
	C261.132385,454.100616 271.995178,461.798859 282.610931,456.777496 
	C291.670044,452.492432 300.733398,451.619415 310.711456,452.764557 
	C326.827911,454.614197 342.634827,451.206512 357.690033,445.663391 
	C363.531219,443.512756 368.321075,438.506714 373.846832,434.620667 
	C375.939423,439.893433 373.947723,444.888763 371.392303,449.398010 
	C363.808716,462.779938 353.513672,473.883087 340.770172,482.433533 
	C330.006287,489.655701 319.152954,496.916931 307.662689,502.850861 
	C277.011780,518.679810 262.486389,544.819214 257.980591,577.738892 
	C256.719238,586.954590 255.776672,596.219788 254.957947,605.486206 
	C254.744705,607.899536 255.267365,610.481689 255.935379,612.849976 
	C258.090851,620.491577 265.137573,623.612122 271.967102,619.563721 
	C275.462006,617.491943 278.856506,614.666321 281.242523,611.409424 
	C291.677246,597.166138 306.210785,592.213928 323.022827,592.150940 
	C336.472015,592.100525 349.640625,590.884888 361.569641,583.909119 
	C365.276245,581.741577 368.827698,579.308838 373.421661,576.377686 
	C370.773193,586.155029 366.261078,593.623352 358.983948,598.920044 
	C353.519379,602.897400 347.371979,605.990845 341.347321,609.129944 
	C334.576569,612.657776 327.556152,615.702881 320.727814,619.124634 
	C311.739502,623.628662 304.910431,630.680969 298.855682,638.493652 
	C295.665527,642.610107 293.922119,647.290649 296.467743,652.436523 
	C299.014160,657.584106 303.748474,657.854553 308.803619,658.085938 
	C316.918610,658.457397 325.006226,660.070190 333.103180,660.053711 
	C348.660736,660.022034 362.760925,654.829651 375.593597,646.112610 
	C377.346344,644.922058 379.159943,643.821045 380.945343,642.678589 
	C381.521454,642.915039 382.097534,643.151428 382.673615,643.387878 
	C381.672668,647.669922 381.301147,652.233826 379.537109,656.174255 
	C376.076111,663.905273 370.518707,670.231873 363.337585,674.772156 
	C346.911774,685.157410 330.513214,695.607971 313.760193,705.447327 
	C297.440918,715.031799 282.583771,726.034302 273.386383,743.022461 
	C271.080383,747.281799 269.593384,752.306580 269.064850,757.126038 
	C268.376434,763.403503 273.006836,767.420166 279.324188,767.016724 
	C281.450806,766.880859 283.794067,766.618469 285.604156,765.623779 
	C296.259338,759.768616 307.303619,760.801086 318.644775,762.867737 
	C328.713776,764.702515 338.915405,765.809631 349.458282,767.294312 
	C349.232117,770.408752 349.098358,774.343384 348.628967,778.237488 
	C347.869995,784.533813 344.394958,788.970093 338.663116,791.581665 
	C335.490875,793.027039 332.228027,794.273560 328.646088,795.747070 
z"/>
<path fill="#155E55" opacity="1.000000" stroke="none" 
	d="
M323.000977,506.003967 
	C331.607727,500.570648 340.053650,495.544006 348.134033,489.985931 
	C360.356049,481.579041 370.275299,470.765961 378.278748,458.365021 
	C384.459015,448.789032 387.533661,438.386414 382.447998,427.155151 
	C379.530701,420.712555 375.669037,419.752960 369.778107,423.813385 
	C368.957855,424.378784 368.135712,424.971283 367.429443,425.667816 
	C350.825562,442.043091 330.078613,443.717651 308.532379,441.965912 
	C298.679474,441.164856 289.341400,442.093933 280.300781,446.311493 
	C278.361023,447.216400 275.761078,446.706177 273.465271,446.847870 
	C273.339813,444.219025 272.153412,440.929688 273.297852,439.091370 
	C276.158234,434.496582 279.637085,430.076111 283.643677,426.440826 
	C304.988953,407.073608 329.525146,392.275940 354.484650,378.207214 
	C366.778992,371.277313 379.817780,365.646240 391.962860,358.483276 
	C397.513367,355.209686 402.567322,350.263855 406.348114,345.000214 
	C413.300537,335.321045 408.118195,324.181824 396.311188,323.212006 
	C391.072815,322.781677 385.312103,323.875092 380.356354,325.765503 
	C366.667328,330.987213 352.859802,328.328857 338.005310,328.213715 
	C343.693298,318.900330 351.312836,313.478210 359.862335,309.345123 
	C368.238464,305.295898 376.957489,301.959534 385.365387,297.971527 
	C395.893005,292.978088 400.952301,284.146027 400.120331,273.082916 
	C399.590088,266.032227 395.956909,262.638306 388.881042,262.623413 
	C381.783844,262.608490 374.686554,262.620148 366.361572,262.620148 
	C369.230896,258.773468 371.318207,255.175140 374.152649,252.318024 
	C384.714264,241.671860 396.659576,233.183899 411.370636,228.987595 
	C414.933655,227.971252 418.589783,226.158829 421.367340,223.749100 
	C426.833649,219.006699 425.678192,212.275330 418.797729,210.125854 
	C412.858337,208.270370 406.433105,207.960968 400.217285,207.003098 
	C397.173431,206.534027 394.117310,206.144547 389.542419,205.506439 
	C392.282227,202.747696 393.755096,200.825760 395.630798,199.454987 
	C402.347260,194.546326 409.361023,190.033264 415.948303,184.962662 
	C420.810211,181.220215 425.510468,177.148804 429.695892,172.674973 
	C435.722107,166.233490 435.130951,160.821991 428.383789,155.220215 
	C423.957123,151.545013 419.393921,148.034271 414.947144,144.493927 
	C415.629761,143.511810 415.803650,143.053909 415.965729,143.058029 
	C427.619354,143.355850 433.643280,136.268539 436.817322,126.354408 
	C439.955750,116.551628 442.267456,106.484406 444.954376,96.536568 
	C445.280670,95.328537 445.684784,94.141533 446.311920,92.102264 
	C448.365540,100.974197 449.664856,109.056740 452.210419,116.725594 
	C453.938965,121.932983 456.544983,127.460487 460.379547,131.168533 
	C463.582947,134.266251 469.139771,134.930237 474.287079,136.916138 
	C472.235016,138.814819 469.940063,141.040405 467.535736,143.140839 
	C463.046844,147.062317 459.713776,151.478699 461.364349,157.887863 
	C462.986542,164.186813 467.839111,166.899368 473.652802,168.200958 
	C477.658081,169.097672 481.744568,169.631729 486.924652,170.522079 
	C484.861816,172.975082 483.480988,174.942230 481.774780,176.567856 
	C479.369507,178.859573 476.782257,180.973389 474.168549,183.030807 
	C467.225952,188.495697 465.514557,194.302185 471.222076,200.961426 
	C477.526581,208.317139 485.428589,214.312881 492.706207,220.821106 
	C495.917755,223.693069 499.609009,226.083023 502.538177,229.202820 
	C506.432098,233.350174 505.820312,235.268600 500.871948,237.973343 
	C497.528015,239.801117 494.010406,241.475571 491.065735,243.836319 
	C484.180054,249.356628 485.120880,255.530121 493.112335,259.127686 
	C504.715424,264.351105 514.189697,272.413391 522.758423,281.606628 
	C524.716858,283.707764 526.060669,286.381775 528.185425,289.530212 
	C520.999390,289.530212 514.939026,289.882477 508.935028,289.450989 
	C498.900787,288.729858 494.573730,292.380005 494.633698,302.392212 
	C494.700195,313.495331 500.532166,320.785706 510.260925,325.252899 
	C520.529419,329.967896 531.092407,334.090820 541.124451,339.253998 
	C547.707581,342.642120 553.766968,347.170929 559.651306,351.718903 
	C561.439575,353.101135 563.250854,356.853455 562.562012,358.438110 
	C561.685364,360.455109 558.316650,362.467346 555.954773,362.549957 
	C549.860168,362.763092 543.671326,362.300171 537.623901,361.405731 
	C526.247925,359.723022 515.216125,359.897369 504.144226,363.697571 
	C497.749542,365.892426 496.590759,372.157104 499.529785,376.393494 
	C501.555206,379.313019 504.232300,382.171204 507.274017,383.908356 
	C512.574951,386.935699 518.262817,389.395752 523.996033,391.538177 
	C562.361694,405.875061 594.344238,428.816223 618.986450,461.680847 
	C620.640076,463.886230 622.031372,466.543823 622.661926,469.200592 
	C623.597717,473.143463 620.298645,475.969269 616.785400,474.252716 
	C607.168701,469.554047 596.811646,469.658813 586.546387,468.992615 
	C566.888550,467.716827 547.452332,465.246948 528.985413,457.862152 
	C525.752075,456.569153 522.720337,454.781250 519.543579,453.335815 
	C513.503845,450.587646 508.899414,452.855286 507.674835,459.354950 
	C506.275726,466.780945 508.357697,473.626953 512.298462,479.794006 
	C523.102844,496.702271 536.617432,511.063354 553.616333,521.879150 
	C564.282593,528.665710 575.069641,535.280884 586.012695,541.609558 
	C605.287170,552.756653 618.328613,568.493896 623.044067,590.558533 
	C624.850403,599.010986 626.651245,607.474609 628.059753,615.998413 
	C628.973022,621.524902 626.879333,623.758606 621.405273,622.682190 
	C616.426331,621.703064 611.630432,619.661804 606.850525,617.835693 
	C601.135437,615.652283 595.582581,613.041565 589.855164,610.893860 
	C572.275208,604.301758 554.684875,597.732117 537.004883,591.415833 
	C533.024048,589.993652 528.616028,588.741577 524.486145,588.959045 
	C513.223938,589.552124 507.809418,598.447388 511.744080,608.982544 
	C517.366638,624.037109 527.543701,634.845642 541.889709,642.104614 
	C555.513550,648.998108 569.025391,656.149292 582.261719,663.752563 
	C586.933472,666.436096 590.810547,670.621765 594.727844,674.451599 
	C596.769836,676.447937 598.110474,679.161499 599.767944,681.551086 
	C599.523071,682.123962 599.278259,682.696899 599.033447,683.269775 
	C596.648071,683.140198 594.044617,683.585388 591.916626,682.777710 
	C584.274658,679.877258 576.484741,679.742004 568.833496,681.738586 
	C555.167908,685.304626 542.226379,684.127441 529.495361,678.017822 
	C524.438171,675.590820 519.029846,673.655457 513.577026,672.350464 
	C505.864349,670.504578 501.520325,675.380981 503.981873,682.925781 
	C506.774200,691.484375 511.700439,698.953552 518.612915,704.608398 
	C535.795349,718.664612 554.235352,731.035095 574.240845,740.621338 
	C603.704773,754.739868 619.242859,778.955688 626.758179,809.522278 
	C627.097351,810.901794 626.944946,812.402100 627.086182,815.065308 
	C622.882935,812.603577 619.265015,810.937927 616.176392,808.579163 
	C610.211548,804.023804 603.560364,802.025391 596.186218,801.998108 
	C592.686401,801.985107 589.185669,801.945557 585.686829,802.004761 
	C573.588623,802.209595 563.220337,798.056152 554.486938,789.727295 
	C552.679810,788.003723 551.000427,786.111389 549.028320,784.602356 
	C544.318115,780.998169 538.507690,782.377014 537.086426,788.056763 
	C533.189880,803.628723 535.368469,821.189331 553.510254,828.718140 
	C569.465515,835.339600 585.216858,842.499207 600.794617,849.970703 
	C617.193115,857.835938 627.366150,871.065247 632.062622,889.674622 
	C626.376953,889.383606 620.990295,889.291870 615.640503,888.800354 
	C598.328857,887.209778 582.142456,882.061707 567.050415,873.358459 
	C558.955322,868.690186 550.690247,869.378601 542.883606,874.076538 
	C536.165588,878.119385 534.112854,885.746826 537.732483,892.713684 
	C547.946228,912.372559 565.078186,922.479980 586.025635,927.062195 
	C593.006897,928.589294 600.189758,929.285339 607.081665,931.111450 
	C622.735840,935.258972 625.107422,943.562805 614.542725,955.947693 
	C614.218262,956.328064 613.941406,956.769104 613.557556,957.075867 
	C598.440674,969.153015 607.635254,986.543884 620.015869,993.376892 
	C628.691101,998.164917 637.291382,1003.622681 644.542908,1010.285583 
	C650.220703,1015.502563 655.293823,1022.462524 657.969299,1029.641724 
	C663.982666,1045.777832 668.657104,1062.445801 673.132202,1079.097290 
	C674.168823,1082.954834 672.221924,1087.614014 671.647949,1091.904297 
	C667.589111,1090.974121 662.988953,1090.963257 659.568237,1088.949219 
	C646.962036,1081.526978 634.761292,1073.417847 622.380127,1065.611450 
	C607.409058,1056.172241 592.164734,1046.820190 574.261292,1044.759399 
	C563.466614,1043.516968 552.341309,1044.377686 541.424927,1045.148071 
	C526.476135,1046.202881 512.954956,1043.405029 501.427429,1033.326904 
	C500.681885,1032.675049 499.798340,1032.170532 498.944672,1031.654419 
	C488.806976,1025.526123 480.981689,1029.560425 480.701172,1041.432739 
	C480.390259,1054.591431 480.594238,1067.763184 480.625763,1080.929077 
	C480.700317,1112.090576 480.248993,1143.266724 481.070587,1174.409058 
	C481.755402,1200.366821 489.878571,1223.883545 509.474060,1242.070190 
	C514.786621,1247.000732 520.880981,1251.331543 527.212708,1254.871216 
	C540.915771,1262.531982 552.185242,1272.758057 563.106018,1283.944336 
	C570.121826,1291.130859 579.795471,1295.728882 588.311340,1301.437256 
	C589.477905,1302.219116 590.839417,1302.710205 593.183411,1303.864136 
	C496.286743,1303.864136 400.652100,1303.864136 303.587494,1303.864136 
	C324.444061,1291.460327 336.963379,1273.279785 348.296844,1254.205078 
	C357.205994,1239.210571 369.332611,1227.228149 382.154724,1215.768188 
	C386.500458,1211.884155 390.812622,1207.960571 395.068359,1203.978271 
	C405.407867,1194.303223 409.277008,1181.513428 410.863251,1168.179077 
	C412.629608,1153.331055 413.871918,1138.336426 414.002991,1123.393799 
	C414.399048,1078.232666 413.955444,1033.064331 414.309631,987.902527 
	C414.379028,979.053772 408.615540,975.447571 400.987671,979.965820 
	C396.023895,982.906006 390.889801,986.200439 387.179565,990.499207 
	C374.174896,1005.566895 357.047729,1011.342896 338.249146,1011.687073 
	C299.282715,1012.400330 268.592834,1031.392212 239.440155,1054.321289 
	C237.375565,1055.945190 236.015823,1058.461548 233.960190,1060.101562 
	C232.137222,1061.555908 229.361481,1063.666992 227.802307,1063.138794 
	C225.795334,1062.458862 223.466217,1059.548584 223.248672,1057.399414 
	C222.721741,1052.193970 222.245804,1046.548218 223.699005,1041.659424 
	C228.001968,1027.183594 232.780258,1012.804871 238.286545,998.746094 
	C242.083252,989.052185 249.854095,982.022461 258.404358,976.373779 
	C265.866180,971.444092 273.724030,966.990479 281.787842,963.120239 
	C299.916748,954.419128 302.417297,941.153625 288.089020,927.070496 
	C285.603210,924.627075 282.894440,922.384033 280.127441,920.258179 
	C272.909485,914.712585 273.120605,909.776184 281.668793,906.569702 
	C288.752075,903.912781 296.351807,902.392151 303.850922,901.129333 
	C326.121155,897.379150 344.222839,887.580017 356.281097,867.698486 
	C362.270172,857.823730 356.364288,847.705383 347.435455,844.989746 
	C340.121796,842.765381 333.256989,843.159912 326.349640,847.178467 
	C306.885132,858.502380 285.582550,862.777466 262.574066,862.951538 
	C266.620789,849.386169 271.731506,836.731384 283.964355,829.879639 
	C300.886261,820.401550 318.670105,812.460266 336.105804,803.903564 
	C339.238037,802.366333 342.585388,801.242554 345.634674,799.566345 
	C352.419739,795.836609 356.921570,790.118408 358.166168,782.459412 
	C359.202118,776.084412 359.846680,769.579407 359.890900,763.126648 
	C359.945404,755.179871 356.330414,753.650879 348.734100,754.919128 
	C342.370270,755.981628 335.515411,755.237183 329.038971,754.243469 
	C317.360413,752.451660 305.785065,749.382141 293.907288,751.888428 
	C289.084442,752.906128 284.475830,754.938904 278.487915,756.019226 
	C281.358185,750.833984 283.641663,745.197266 287.214935,740.552979 
	C295.963043,729.182861 307.128845,720.546753 319.959625,714.088196 
	C339.653961,704.174622 358.229370,692.410583 375.226013,678.429504 
	C385.504547,669.974609 392.578766,659.122314 392.379242,644.929871 
	C392.229736,634.298218 384.655975,629.654907 375.079681,634.344055 
	C366.015381,638.782471 357.216125,643.908936 347.827820,647.496338 
	C339.033539,650.856812 329.564301,650.708923 320.200867,648.951111 
	C315.671021,648.100647 311.041931,647.778687 305.816498,647.138977 
	C310.083649,639.929810 315.705902,633.903320 322.964996,629.924133 
	C332.865784,624.497131 343.235077,619.929016 353.365448,614.915771 
	C365.556244,608.882874 375.070038,600.072144 380.496857,587.441284 
	C382.179108,583.525940 383.338531,579.226379 383.838440,574.996460 
	C384.812622,566.752930 379.266663,562.732422 371.618774,565.923767 
	C368.572845,567.194824 365.546234,568.777222 362.931244,570.769653 
	C351.925964,579.154785 339.311096,581.918823 325.841431,581.838440 
	C314.572235,581.771179 303.216522,582.419739 293.387634,588.180786 
	C286.501556,592.216919 280.649261,598.090515 274.594086,603.436584 
	C271.919403,605.798035 269.886139,608.885986 267.561737,611.644165 
	C266.780396,611.296814 265.999023,610.949402 265.217651,610.602051 
	C265.217651,606.914246 264.719757,603.145020 265.307312,599.553345 
	C267.400085,586.761169 269.267029,573.884888 272.321045,561.307922 
	C277.136902,541.475525 288.459503,526.133728 306.443970,515.965332 
	C311.942627,512.856384 317.270477,509.445374 323.000977,506.003967 
z"/>
<path fill="#8D191B" opacity="1.000000" stroke="none" 
	d="
M845.297729,1147.158447 
	C806.024841,1184.939087 767.021240,1222.467163 728.018311,1259.995728 
	C714.097534,1273.390259 700.242249,1286.854004 686.174927,1300.092773 
	C684.484497,1301.683594 681.662964,1302.823975 679.340698,1302.868408 
	C665.847107,1303.126953 652.345520,1303.072266 638.847656,1302.977539 
	C616.212036,1302.818604 595.720520,1295.732178 577.248169,1282.946289 
	C572.811646,1279.875488 569.225708,1275.488892 565.534180,1271.446533 
	C557.263062,1262.389282 548.078430,1254.390137 537.145386,1248.859863 
	C506.847870,1233.535034 492.421967,1207.822021 491.460236,1175.180786 
	C490.165131,1131.226318 490.917450,1087.211670 490.811615,1043.222778 
	C490.809265,1042.247437 491.053284,1041.271484 491.264313,1039.676147 
	C492.644623,1040.319336 493.949951,1040.608765 494.826416,1041.383423 
	C508.795837,1053.729370 525.398682,1056.518188 543.314758,1055.289429 
	C552.751831,1054.642212 562.370117,1053.666504 571.679321,1054.765015 
	C589.280579,1056.841919 604.052856,1066.264771 618.688660,1075.562012 
	C630.341553,1082.964355 641.901123,1090.519165 653.684692,1097.706909 
	C657.029358,1099.747192 660.906494,1101.162354 664.725464,1102.130005 
	C675.434021,1104.843262 684.153748,1099.055298 683.704163,1088.060547 
	C683.261414,1077.234253 680.888306,1066.384766 678.379517,1055.777954 
	C676.439453,1047.575928 672.711304,1039.814819 670.254150,1031.713379 
	C664.778442,1013.659058 652.738953,1001.042908 637.325867,991.156250 
	C633.273315,988.556702 628.812073,986.581604 624.831848,983.886536 
	C622.146606,982.068420 619.557495,979.791931 617.676086,977.179810 
	C615.086487,973.584229 615.544556,970.215454 618.806580,966.490051 
	C623.018127,961.680176 627.058105,956.337219 629.602844,950.535522 
	C634.046265,940.404907 630.189941,929.724792 620.039673,925.356018 
	C611.769287,921.796326 602.733032,919.540649 593.811707,918.069580 
	C576.361755,915.192139 561.238525,908.605469 550.598572,893.994202 
	C548.526428,891.148560 544.125061,888.170959 547.568115,883.608521 
	C550.098022,880.256104 557.178711,880.242554 562.011841,882.273438 
	C573.906738,887.271545 585.711792,892.828430 598.082703,896.239746 
	C608.053711,898.989197 618.775269,899.552612 629.207092,899.949951 
	C640.556152,900.382263 644.447693,893.824524 641.113220,882.924927 
	C634.824341,862.368225 621.729248,847.954712 602.437927,839.056519 
	C587.963745,832.380188 573.330872,826.046448 558.743652,819.616760 
	C548.125427,814.936584 544.751038,808.985596 546.213806,797.261963 
	C546.512939,797.261963 546.929688,797.132812 547.087036,797.280334 
	C559.217102,808.654785 573.753540,813.226685 590.130920,812.305603 
	C598.571411,811.830933 605.942383,813.552551 612.972290,818.868591 
	C616.940735,821.869507 622.633545,823.204224 627.741333,823.918518 
	C633.278015,824.692871 636.934937,821.030151 637.113647,815.331543 
	C637.242126,811.236145 636.862427,806.961670 635.789368,803.017395 
	C626.868225,770.226196 608.557800,745.544434 577.120117,730.179810 
	C559.477356,721.557251 543.513489,709.381348 527.226257,698.176880 
	C522.487183,694.916809 519.241821,689.485352 515.311768,685.049255 
	C515.630798,684.623779 515.949829,684.198303 516.268799,683.772827 
	C519.252747,684.941528 522.351624,685.882019 525.201233,687.317383 
	C539.846985,694.694397 555.018555,695.893311 570.812683,691.835388 
	C576.851440,690.283813 582.885254,690.202209 588.892456,692.788635 
	C591.376221,693.858093 594.429382,694.112183 597.181091,693.961426 
	C607.386902,693.402283 613.169312,684.381165 607.898743,675.710693 
	C603.862366,669.070618 597.991699,663.275208 592.056274,658.117615 
	C580.653198,648.208923 566.996826,641.876892 553.209229,635.983276 
	C539.612000,630.170959 528.220276,622.006165 522.511353,607.737793 
	C521.680237,605.660522 521.110901,601.444641 521.711365,601.183228 
	C524.205933,600.097046 527.573425,599.097717 529.941040,599.951233 
	C544.626526,605.245544 559.040527,611.291626 573.719238,616.606140 
	C585.084473,620.720947 596.846680,623.544983 607.570129,629.605957 
	C612.099609,632.165955 618.063904,633.001099 623.411255,633.127197 
	C633.880188,633.374084 640.079163,625.792236 638.421753,615.450195 
	C637.028503,606.756653 635.531677,598.042847 633.361145,589.521362 
	C631.242493,581.203430 628.212219,573.117737 625.470215,564.581421 
	C626.690674,564.507324 628.112610,564.346619 629.534668,564.345703 
	C654.198669,564.330383 678.863647,564.236145 703.525269,564.479492 
	C706.129395,564.505249 709.357422,565.893250 711.212952,567.738342 
	C756.116760,612.390076 800.856689,657.206482 845.703125,701.916077 
	C848.009644,704.215698 848.942566,706.493896 848.940857,709.746399 
	C848.865906,852.897522 848.864502,996.048767 848.948608,1139.199951 
	C848.950500,1142.490723 848.228882,1145.006592 845.297729,1147.158447 
z"/>
<path fill="#8D191B" opacity="1.000000" stroke="none" 
	d="
M270.575165,1044.494751 
	C279.593536,1039.807373 288.357086,1035.413574 297.023743,1030.836670 
	C310.221832,1023.866638 324.568329,1022.792847 339.083893,1022.041260 
	C351.781799,1021.383606 364.510437,1019.510437 375.482666,1012.807739 
	C383.040192,1008.191040 389.429016,1001.661255 396.340302,995.986694 
	C398.603699,994.128235 400.867615,992.270386 403.994781,989.703491 
	C403.994781,992.430481 403.996033,994.016174 403.994598,995.601868 
	C403.954773,1039.593384 404.322388,1083.591064 403.656708,1127.572998 
	C403.418854,1143.288452 401.079315,1159.020752 398.943390,1174.642090 
	C397.524414,1185.020142 392.040588,1193.491333 383.853302,1200.291626 
	C377.458374,1205.603394 371.537415,1211.483643 365.369019,1217.070435 
	C353.270355,1228.028564 343.935699,1241.107910 335.558594,1255.022949 
	C328.589050,1266.600098 320.549347,1277.386719 310.290405,1286.405029 
	C297.393707,1297.742188 282.055084,1302.398804 265.332794,1302.792480 
	C249.011307,1303.176636 232.672745,1302.959473 216.344406,1302.770752 
	C214.294861,1302.747070 211.753952,1301.817139 210.294800,1300.416992 
	C156.824142,1249.108643 103.439430,1197.710571 50.145393,1146.218872 
	C48.575661,1144.702271 47.253418,1142.048950 47.248081,1139.921875 
	C47.095062,1078.932861 47.125225,1017.943298 47.131695,956.953796 
	C47.131763,956.290710 47.210770,955.627563 47.279556,954.545654 
	C122.787537,954.545654 198.274246,954.545654 274.630737,954.545654 
	C271.162140,956.410217 268.103943,957.644897 265.511261,959.522400 
	C256.782593,965.843323 247.599686,971.736328 239.812286,979.087341 
	C234.671265,983.940247 230.383743,990.548279 227.893280,997.187927 
	C222.019669,1012.847046 216.942032,1028.860107 212.642929,1045.022705 
	C211.245560,1050.276123 212.294739,1056.726807 213.910034,1062.125732 
	C217.692627,1074.768188 231.936951,1077.999512 240.648605,1068.133789 
	C249.185226,1058.466187 259.494568,1051.364624 270.575165,1044.494751 
z"/>
</svg>