<?xml version="1.0" encoding="UTF-8"?>
<!DOCTYPE svg PUBLIC "-//W3C//DTD SVG 1.1//EN" "http://www.w3.org/Graphics/SVG/1.1/DTD/svg11.dtd">
<svg xmlns="http://www.w3.org/2000/svg" version="1.1" width="300px" height="296px" style="shape-rendering:geometricPrecision; text-rendering:geometricPrecision; image-rendering:optimizeQuality; fill-rule:evenodd; clip-rule:evenodd" xmlns:xlink="http://www.w3.org/1999/xlink">
<g><path style="opacity:0.674" fill="#e9eeef" d="M 279.5,84.5 C 259.428,49.2761 230.095,25.1094 191.5,12C 181.007,9.09657 170.341,7.26324 159.5,6.5C 93.4424,3.61582 45.9424,31.9491 17,91.5C 14.5347,97.423 12.368,103.423 10.5,109.5C 7.97428,118.99 6.64094,128.656 6.5,138.5C 5.83333,144.167 5.16667,149.833 4.5,155.5C 3.47228,90.0204 32.1389,42.8537 90.5,14C 147.513,-7.9054 199.513,0.427929 246.5,39C 260.579,52.0139 271.579,67.1805 279.5,84.5 Z"/></g>
<g><path style="opacity:1" fill="#e4eef9" d="M 132.5,8.5 C 133.718,9.16145 135.051,9.82811 136.5,10.5C 136.333,10.8333 136.167,11.1667 136,11.5C 132.214,10.2052 128.38,10.2052 124.5,11.5C 126.975,11.9642 128.975,12.9642 130.5,14.5C 129.325,14.281 128.325,14.6143 127.5,15.5C 129.17,22.9259 127.836,23.2592 123.5,16.5C 122.675,15.6143 121.675,15.281 120.5,15.5C 121.013,19.2293 121.846,22.896 123,26.5C 123.483,25.552 123.649,24.552 123.5,23.5C 125.108,28.4397 123.108,30.4397 117.5,29.5C 117.5,28.1667 117.5,26.8333 117.5,25.5C 116.707,23.082 115.374,21.082 113.5,19.5C 110.866,18.4681 108.199,18.8014 105.5,20.5C 107.332,21.0568 108.665,22.0568 109.5,23.5C 104.252,23.0061 99.0849,22.0061 94,20.5C 91.5,21.3333 89,22.1667 86.5,23C 88.4913,23.3736 90.158,24.207 91.5,25.5C 87.0421,30.6691 88.0421,34.3357 94.5,36.5C 96.2073,36.2716 97.874,35.9383 99.5,35.5C 99.9175,36.2216 100.584,36.7216 101.5,37C 100.069,37.4652 98.9025,38.2986 98,39.5C 96.2739,38.4238 94.4406,38.2571 92.5,39C 91.1667,39.6667 91.1667,40.3333 92.5,41C 90.6131,41.7796 88.9464,41.6129 87.5,40.5C 88.4972,40.5299 89.1639,40.0299 89.5,39C 88.2447,36.0777 86.578,33.411 84.5,31C 83.8333,30.3333 83.1667,30.3333 82.5,31C 86.6223,36.4218 85.6223,37.5884 79.5,34.5C 76.9759,33.1997 74.3092,33.1997 71.5,34.5C 72.7287,35.2811 74.062,35.7811 75.5,36C 75.1667,36.3333 74.8333,36.6667 74.5,37C 71.8333,37 69.1667,37 66.5,37C 65.2721,38.4902 65.2721,39.9902 66.5,41.5C 66.7557,49.08 70.4224,51.4133 77.5,48.5C 76.2511,50.1361 74.5844,51.3028 72.5,52C 73.1667,52.6667 73.8333,53.3333 74.5,54C 72.8659,54.4935 71.1992,54.6602 69.5,54.5C 69.4148,55.9953 70.0815,56.9953 71.5,57.5C 73.323,56.2528 75.323,55.5861 77.5,55.5C 58.6646,70.6594 45.6646,89.826 38.5,113C 38.5699,113.765 38.9033,114.265 39.5,114.5C 37.0378,122.014 35.0378,129.681 33.5,137.5C 29.1492,134.688 27.1492,136.022 27.5,141.5C 28.4959,141.414 29.3292,141.748 30,142.5C 30.3333,141.833 30.6667,141.167 31,140.5C 31.918,144.28 32.7513,147.946 33.5,151.5C 34.4137,154.728 34.7471,158.061 34.5,161.5C 33.7321,160.737 33.2321,159.737 33,158.5C 31.6667,159.833 30.3333,159.833 29,158.5C 28.2534,161.924 28.42,165.257 29.5,168.5C 27.4352,168.517 25.4352,168.85 23.5,169.5C 24.9418,168.18 25.6085,166.514 25.5,164.5C 22.8333,164.5 20.1667,164.5 17.5,164.5C 16.791,165.404 15.791,165.737 14.5,165.5C 13.8258,161.683 15.1592,158.85 18.5,157C 16.563,156.878 15.2297,156.045 14.5,154.5C 13.603,153.402 12.7697,153.402 12,154.5C 11.7677,152.717 12.2677,151.05 13.5,149.5C 13.3333,148.833 13.1667,148.167 13,147.5C 12.7508,148.624 12.2508,149.624 11.5,150.5C 10.2888,149.726 10.2888,148.893 11.5,148C 10.8742,147.25 10.3742,146.416 10,145.5C 9.50058,151.157 9.33391,156.824 9.5,162.5C 7.57508,144.803 8.57508,127.136 12.5,109.5C 28.8765,59.6237 62.2098,27.1237 112.5,12C 119.051,10.1358 125.718,8.96912 132.5,8.5 Z"/></g>
<g><path style="opacity:1" fill="#2f78d8" d="M 117.5,25.5 C 116.795,22.7557 116.795,20.089 117.5,17.5C 119.35,20.6147 119.85,23.948 119,27.5C 118.722,26.5842 118.222,25.9175 117.5,25.5 Z"/></g>
<g><path style="opacity:1" fill="#4180dc" d="M 130.5,14.5 C 130.423,18.2148 130.756,21.8815 131.5,25.5C 128.386,24.9087 125.886,23.242 124,20.5C 123.517,21.448 123.351,22.448 123.5,23.5C 123.649,24.552 123.483,25.552 123,26.5C 121.846,22.896 121.013,19.2293 120.5,15.5C 121.675,15.281 122.675,15.6143 123.5,16.5C 127.836,23.2592 129.17,22.9259 127.5,15.5C 128.325,14.6143 129.325,14.281 130.5,14.5 Z"/></g>
<g><path style="opacity:1" fill="#327de4" d="M 137.5,7.5 C 144.648,6.50837 151.981,6.17503 159.5,6.5C 170.341,7.26324 181.007,9.09657 191.5,12C 230.095,25.1094 259.428,49.2761 279.5,84.5C 279.657,85.8734 279.49,87.2068 279,88.5C 248.078,33.4469 200.911,6.44689 137.5,7.5 Z"/></g>
<g><path style="opacity:1" fill="#4585db" d="M 113.5,19.5 C 112.503,19.4701 111.836,19.9701 111.5,21C 112.929,24.1576 113.262,27.3243 112.5,30.5C 111.3,28.2293 110.3,25.896 109.5,23.5C 108.665,22.0568 107.332,21.0568 105.5,20.5C 108.199,18.8014 110.866,18.4681 113.5,19.5 Z"/></g>
<g><path style="opacity:1" fill="#4883dd" d="M 99.5,35.5 C 97.874,35.9383 96.2073,36.2716 94.5,36.5C 88.0421,34.3357 87.0421,30.6691 91.5,25.5C 93.8669,23.9277 95.8669,24.261 97.5,26.5C 96.467,27.452 95.3004,27.452 94,26.5C 90.3032,27.9265 89.6365,30.2598 92,33.5C 94.0408,34.4231 96.2075,34.7564 98.5,34.5C 98.6463,32.0576 97.813,31.3909 96,32.5C 95.5172,31.552 95.3505,30.552 95.5,29.5C 100.997,29.1895 102.331,31.1895 99.5,35.5 Z"/></g>
<g><path style="opacity:1" fill="#bfd8f1" d="M 79.5,34.5 C 78.325,34.281 77.325,34.6143 76.5,35.5C 78.0252,38.563 80.0252,41.2297 82.5,43.5C 83.1067,43.3764 83.44,43.0431 83.5,42.5C 84.0431,42.56 84.3764,42.8933 84.5,43.5C 82.9936,44.7472 81.4936,44.7472 80,43.5C 79.7679,44.7375 79.2679,45.7375 78.5,46.5C 78.6804,40.1803 75.6804,37.6803 69.5,39C 68.3094,39.6979 67.3094,40.5313 66.5,41.5C 65.2721,39.9902 65.2721,38.4902 66.5,37C 69.1667,37 71.8333,37 74.5,37C 74.8333,36.6667 75.1667,36.3333 75.5,36C 74.062,35.7811 72.7287,35.2811 71.5,34.5C 74.3092,33.1997 76.9759,33.1997 79.5,34.5 Z"/></g>
<g><path style="opacity:1" fill="#367bda" d="M 78.5,46.5 C 78.1667,47.1667 77.8333,47.8333 77.5,48.5C 70.4224,51.4133 66.7557,49.08 66.5,41.5C 67.3094,40.5313 68.3094,39.6979 69.5,39C 75.6804,37.6803 78.6804,40.1803 78.5,46.5 Z"/></g>
<g><path style="opacity:1" fill="#347fda" d="M 87.5,40.5 C 85.604,39.5195 83.604,38.5195 81.5,37.5C 81.1667,37.8333 80.8333,38.1667 80.5,38.5C 81.5207,39.9014 82.5207,41.2347 83.5,42.5C 83.44,43.0431 83.1067,43.3764 82.5,43.5C 80.0252,41.2297 78.0252,38.563 76.5,35.5C 77.325,34.6143 78.325,34.281 79.5,34.5C 85.6223,37.5884 86.6223,36.4218 82.5,31C 83.1667,30.3333 83.8333,30.3333 84.5,31C 86.578,33.411 88.2447,36.0777 89.5,39C 89.1639,40.0299 88.4972,40.5299 87.5,40.5 Z"/></g>
<g><path style="opacity:1" fill="#1773e2" d="M 213.5,50.5 C 211.856,51.3164 210.69,52.6498 210,54.5C 207.827,51.723 207.327,51.8897 208.5,55C 207.552,55.4828 206.552,55.6495 205.5,55.5C 205.279,58.0673 204.612,60.4006 203.5,62.5C 202.833,62.5 202.167,62.5 201.5,62.5C 200.486,61.3263 199.153,60.6596 197.5,60.5C 198.953,59.1751 198.619,58.3418 196.5,58C 198.108,57.342 199.275,57.842 200,59.5C 201.067,58.8095 202.234,58.3095 203.5,58C 202.338,57.1729 201.171,56.3396 200,55.5C 197.563,56.6542 195.063,57.1542 192.5,57C 189.264,53.0965 185.431,49.9298 181,47.5C 178.046,47.5944 177.879,48.0944 180.5,49C 178,49.5 175.5,50 173,50.5C 169.076,48.7102 165.076,48.3769 161,49.5C 159.32,48.4535 157.486,47.7868 155.5,47.5C 146.442,47.7722 137.109,48.1056 127.5,48.5C 127.5,45.5 127.5,42.5 127.5,39.5C 128.873,39.6567 130.207,39.49 131.5,39C 128.754,37.2503 125.754,36.2503 122.5,36C 124.175,35.0147 125.842,34.1814 127.5,33.5C 152.223,28.957 176.223,31.7903 199.5,42C 204.73,44.1057 209.397,46.939 213.5,50.5 Z"/></g>
<g><path style="opacity:1" fill="#e0edf7" d="M 70.5,39.5 C 75.5003,40.1557 77.167,42.8224 75.5,47.5C 72.7546,48.9753 70.588,48.3087 69,45.5C 68.2516,43.1599 68.7516,41.1599 70.5,39.5 Z"/></g>
<g><path style="opacity:1" fill="#317adb" d="M 69.5,54.5 C 68.3734,53.8783 67.3734,53.045 66.5,52C 64.1745,51.6547 62.5079,52.6547 61.5,55C 62.5089,56.1681 63.5089,57.3348 64.5,58.5C 64.1667,58.8333 63.8333,59.1667 63.5,59.5C 60.8333,56.8333 58.1667,54.1667 55.5,51.5C 55.8333,51.1667 56.1667,50.8333 56.5,50.5C 59.2831,53.3506 61.6164,53.0172 63.5,49.5C 62.8333,48.5 62.1667,47.5 61.5,46.5C 61.8333,46.1667 62.1667,45.8333 62.5,45.5C 65.2634,48.2515 67.5967,51.2515 69.5,54.5 Z"/></g>
<g><path style="opacity:1" fill="#2279e2" d="M 127.5,33.5 C 125.842,34.1814 124.175,35.0147 122.5,36C 125.754,36.2503 128.754,37.2503 131.5,39C 130.207,39.49 128.873,39.6567 127.5,39.5C 127.5,42.5 127.5,45.5 127.5,48.5C 137.109,48.1056 146.442,47.7722 155.5,47.5C 157.486,47.7868 159.32,48.4535 161,49.5C 165.076,48.3769 169.076,48.7102 173,50.5C 175.5,50 178,49.5 180.5,49C 177.879,48.0944 178.046,47.5944 181,47.5C 185.431,49.9298 189.264,53.0965 192.5,57C 195.063,57.1542 197.563,56.6542 200,55.5C 201.171,56.3396 202.338,57.1729 203.5,58C 202.234,58.3095 201.067,58.8095 200,59.5C 199.275,57.842 198.108,57.342 196.5,58C 198.619,58.3418 198.953,59.1751 197.5,60.5C 169.276,51.3753 140.61,50.042 111.5,56.5C 111.881,55.0689 112.881,54.2355 114.5,54C 113.376,53.7508 112.376,53.2508 111.5,52.5C 112.326,51.549 112.492,50.549 112,49.5C 109.281,50.4438 106.448,50.7771 103.5,50.5C 103.785,48.712 103.452,47.0453 102.5,45.5C 100.52,46.3833 98.5202,46.2166 96.5,45C 97.756,44.5831 98.4226,43.7498 98.5,42.5C 107.592,37.692 117.258,34.692 127.5,33.5 Z"/></g>
<g><path style="opacity:1" fill="#4086de" d="M 159.5,6.5 C 151.981,6.17503 144.648,6.50837 137.5,7.5C 135.883,8.038 134.216,8.37133 132.5,8.5C 125.718,8.96912 119.051,10.1358 112.5,12C 62.2098,27.1237 28.8765,59.6237 12.5,109.5C 12.0623,108.494 11.3957,108.494 10.5,109.5C 12.368,103.423 14.5347,97.423 17,91.5C 45.9424,31.9491 93.4424,3.61582 159.5,6.5 Z"/></g>
<g><path style="opacity:1" fill="#eef4fc" d="M 197.5,60.5 C 199.153,60.6596 200.486,61.3263 201.5,62.5C 196.453,63.0069 191.453,63.8403 186.5,65C 188.817,66.782 190.484,68.9487 191.5,71.5C 171.71,62.1098 151.044,59.6098 129.5,64C 125.296,65.2309 121.296,66.7309 117.5,68.5C 98.3748,77.1214 83.8748,90.788 74,109.5C 72.1747,112.971 71.1747,116.638 71,120.5C 79.6604,103.183 93.1604,91.0162 111.5,84C 115.716,82.3158 120.049,81.1491 124.5,80.5C 121.561,81.9696 118.561,83.4696 115.5,85C 116.167,85.6667 116.833,86.3333 117.5,87C 115.527,87.4955 113.527,87.6621 111.5,87.5C 111.753,89.8273 111.086,91.8273 109.5,93.5C 107.65,92.7582 106.984,91.7582 107.5,90.5C 105.519,91.1054 105.185,92.1054 106.5,93.5C 102.689,94.7376 102.689,95.4042 106.5,95.5C 106.665,98.5184 106.498,101.518 106,104.5C 105.107,103.289 104.274,103.289 103.5,104.5C 104.833,105.833 104.833,107.167 103.5,108.5C 105.734,110.381 107.067,112.715 107.5,115.5C 105.726,118.363 104.559,121.363 104,124.5C 106.028,121.308 108.528,118.641 111.5,116.5C 111.086,118.681 110.919,121.015 111,123.5C 109.283,119.725 107.783,120.058 106.5,124.5C 105.675,125.386 104.675,125.719 103.5,125.5C 103.844,129.684 105.844,132.851 109.5,135C 108.556,137.719 108.223,140.552 108.5,143.5C 109.552,143.351 110.552,143.517 111.5,144C 109.745,144.72 108.911,145.887 109,147.5C 111.124,148.227 113.291,148.894 115.5,149.5C 116.386,150.325 116.719,151.325 116.5,152.5C 117.5,152.5 118.5,152.5 119.5,152.5C 119.104,155.044 119.771,157.211 121.5,159C 118.671,160.247 116.005,161.747 113.5,163.5C 115.336,164.919 117.336,166.086 119.5,167C 119,167.5 118.5,168 118,168.5C 116.167,168.333 114.333,168.167 112.5,168C 114.394,169.079 114.727,170.413 113.5,172C 114.536,173.617 115.703,173.784 117,172.5C 117.47,173.577 117.303,174.577 116.5,175.5C 93.1958,153.941 65.5291,142.274 33.5,140.5C 33.5,144.167 33.5,147.833 33.5,151.5C 32.7513,147.946 31.918,144.28 31,140.5C 30.6667,141.167 30.3333,141.833 30,142.5C 29.3292,141.748 28.4959,141.414 27.5,141.5C 27.1492,136.022 29.1492,134.688 33.5,137.5C 35.0378,129.681 37.0378,122.014 39.5,114.5C 49.5939,91.9057 65.9273,75.4057 88.5,65C 96.018,61.4422 103.685,58.6089 111.5,56.5C 140.61,50.042 169.276,51.3753 197.5,60.5 Z"/></g>
<g><path style="opacity:1" fill="#247ae0" d="M 98.5,42.5 C 98.4226,43.7498 97.756,44.5831 96.5,45C 98.5202,46.2166 100.52,46.3833 102.5,45.5C 103.452,47.0453 103.785,48.712 103.5,50.5C 106.448,50.7771 109.281,50.4438 112,49.5C 112.492,50.549 112.326,51.549 111.5,52.5C 112.376,53.2508 113.376,53.7508 114.5,54C 112.881,54.2355 111.881,55.0689 111.5,56.5C 103.685,58.6089 96.018,61.4422 88.5,65C 65.9273,75.4057 49.5939,91.9057 39.5,114.5C 38.9033,114.265 38.5699,113.765 38.5,113C 45.6646,89.826 58.6646,70.6594 77.5,55.5C 84.235,50.7704 91.235,46.4371 98.5,42.5 Z"/></g>
<g><path style="opacity:1" fill="#3e7fdb" d="M 52.5,53.5 C 53.2389,53.369 53.9056,53.5357 54.5,54C 53.6433,54.6891 52.9767,55.5224 52.5,56.5C 54.1901,59.0237 56.3568,61.0237 59,62.5C 59.6877,63.3317 59.521,63.9984 58.5,64.5C 55.8333,62.5 53.1667,60.5 50.5,58.5C 49.8333,59.1667 49.1667,59.8333 48.5,60.5C 48.1667,60.1667 47.8333,59.8333 47.5,59.5C 49.1897,57.4807 50.8564,55.4807 52.5,53.5 Z"/></g>
<g><path style="opacity:1" fill="#f3f7fd" d="M 201.5,62.5 C 202.167,62.5 202.833,62.5 203.5,62.5C 214.705,67.5239 225.039,74.0239 234.5,82C 246.552,91.6482 255.552,103.482 261.5,117.5C 262.5,120.833 263.5,124.167 264.5,127.5C 265.004,132.058 265.671,136.558 266.5,141C 266.043,141.414 265.709,141.914 265.5,142.5C 266.776,143.645 268.109,143.645 269.5,142.5C 270.318,145.107 270.818,147.774 271,150.5C 272.299,150.034 273.799,150.034 275.5,150.5C 274.545,152.71 273.045,153.043 271,151.5C 270.532,155.627 271.032,159.627 272.5,163.5C 272.5,163.833 272.5,164.167 272.5,164.5C 271.566,165.568 271.232,166.901 271.5,168.5C 272.833,168.5 274.167,168.5 275.5,168.5C 275.5,167.5 275.5,166.5 275.5,165.5C 278.881,165.46 282.214,165.793 285.5,166.5C 285.942,170.847 286.775,171.18 288,167.5C 288.667,169.167 288.667,170.833 288,172.5C 286.247,173.627 284.413,174.627 282.5,175.5C 281.537,175.03 281.537,174.363 282.5,173.5C 282.833,173.5 283.167,173.5 283.5,173.5C 284.404,172.791 284.737,171.791 284.5,170.5C 279.767,170.777 275.1,170.443 270.5,169.5C 269.029,170.381 268.196,171.714 268,173.5C 267.586,173.043 267.086,172.709 266.5,172.5C 264.066,175.124 261.066,175.957 257.5,175C 258.572,173.716 259.905,173.383 261.5,174C 261.167,173.667 260.833,173.333 260.5,173C 263.525,172.846 265.191,171.346 265.5,168.5C 266.873,168.657 268.207,168.49 269.5,168C 267.911,163.96 266.911,159.794 266.5,155.5C 266.5,152.833 266.5,150.167 266.5,147.5C 258.392,147.173 250.392,147.84 242.5,149.5C 241.547,147.39 239.881,146.223 237.5,146C 240.934,145.442 244.267,144.609 247.5,143.5C 247.5,140.833 247.5,138.167 247.5,135.5C 244.753,135.813 242.086,135.48 239.5,134.5C 239.154,129.987 238.654,125.321 238,120.5C 236.605,119.185 235.605,119.519 235,121.5C 234.667,120.833 234.333,120.167 234,119.5C 233.898,126.872 234.231,134.206 235,141.5C 233.627,136.928 232.794,132.261 232.5,127.5C 230.681,117.859 227.181,108.859 222,100.5C 213.556,88.886 203.389,79.2194 191.5,71.5C 190.484,68.9487 188.817,66.782 186.5,65C 191.453,63.8403 196.453,63.0069 201.5,62.5 Z"/></g>
<g><path style="opacity:1" fill="#e9f2fa" d="M 137.5,7.5 C 200.911,6.44689 248.078,33.4469 279,88.5C 279.49,87.2068 279.657,85.8734 279.5,84.5C 281.293,86.4261 282.293,88.7594 282.5,91.5C 281.849,90.9094 281.182,90.2427 280.5,89.5C 279.702,89.9569 279.369,90.6236 279.5,91.5C 277.583,90.8836 276.416,89.5503 276,87.5C 274.961,88.2438 274.461,89.2438 274.5,90.5C 269.559,84.9793 265.226,85.4793 261.5,92C 262.077,93.9001 262.744,95.7334 263.5,97.5C 261.956,97.2969 260.622,96.6302 259.5,95.5C 257.889,96.3202 257.222,97.6536 257.5,99.5C 248.928,83.226 237.595,69.0594 223.5,57C 220.536,54.1903 217.202,52.0236 213.5,50.5C 209.397,46.939 204.73,44.1057 199.5,42C 176.223,31.7903 152.223,28.957 127.5,33.5C 117.258,34.692 107.592,37.692 98.5,42.5C 91.235,46.4371 84.235,50.7704 77.5,55.5C 75.323,55.5861 73.323,56.2528 71.5,57.5C 70.0815,56.9953 69.4148,55.9953 69.5,54.5C 71.1992,54.6602 72.8659,54.4935 74.5,54C 73.8333,53.3333 73.1667,52.6667 72.5,52C 74.5844,51.3028 76.2511,50.1361 77.5,48.5C 77.8333,47.8333 78.1667,47.1667 78.5,46.5C 79.2679,45.7375 79.7679,44.7375 80,43.5C 81.4936,44.7472 82.9936,44.7472 84.5,43.5C 84.3764,42.8933 84.0431,42.56 83.5,42.5C 82.5207,41.2347 81.5207,39.9014 80.5,38.5C 80.8333,38.1667 81.1667,37.8333 81.5,37.5C 83.604,38.5195 85.604,39.5195 87.5,40.5C 88.9464,41.6129 90.6131,41.7796 92.5,41C 91.1667,40.3333 91.1667,39.6667 92.5,39C 94.4406,38.2571 96.2739,38.4238 98,39.5C 98.9025,38.2986 100.069,37.4652 101.5,37C 100.584,36.7216 99.9175,36.2216 99.5,35.5C 102.331,31.1895 100.997,29.1895 95.5,29.5C 95.3505,30.552 95.5172,31.552 96,32.5C 97.813,31.3909 98.6463,32.0576 98.5,34.5C 96.2075,34.7564 94.0408,34.4231 92,33.5C 89.6365,30.2598 90.3032,27.9265 94,26.5C 95.3004,27.452 96.467,27.452 97.5,26.5C 95.8669,24.261 93.8669,23.9277 91.5,25.5C 90.158,24.207 88.4913,23.3736 86.5,23C 89,22.1667 91.5,21.3333 94,20.5C 99.0849,22.0061 104.252,23.0061 109.5,23.5C 110.3,25.896 111.3,28.2293 112.5,30.5C 113.262,27.3243 112.929,24.1576 111.5,21C 111.836,19.9701 112.503,19.4701 113.5,19.5C 115.374,21.082 116.707,23.082 117.5,25.5C 117.5,26.8333 117.5,28.1667 117.5,29.5C 123.108,30.4397 125.108,28.4397 123.5,23.5C 123.351,22.448 123.517,21.448 124,20.5C 125.886,23.242 128.386,24.9087 131.5,25.5C 130.756,21.8815 130.423,18.2148 130.5,14.5C 128.975,12.9642 126.975,11.9642 124.5,11.5C 128.38,10.2052 132.214,10.2052 136,11.5C 136.167,11.1667 136.333,10.8333 136.5,10.5C 135.051,9.82811 133.718,9.16145 132.5,8.5C 134.216,8.37133 135.883,8.038 137.5,7.5 Z"/></g>
<g><path style="opacity:1" fill="#2b74de" d="M 245.5,55.5 C 246.552,55.3505 247.552,55.5172 248.5,56C 245.833,58 245.833,60 248.5,62C 250.167,61.6667 251.833,61.3333 253.5,61C 250.984,63.6833 248.317,66.1833 245.5,68.5C 245.167,68.1667 244.833,67.8333 244.5,67.5C 248.554,64.8372 248.387,62.5039 244,60.5C 242.395,61.1007 241.062,62.1007 240,63.5C 239.833,63.1667 239.667,62.8333 239.5,62.5C 241.523,60.1472 243.523,57.8138 245.5,55.5 Z"/></g>
<g><path style="opacity:1" fill="#3981e4" d="M 243.5,51.5 C 245.337,51.6395 245.67,52.3061 244.5,53.5C 243.702,53.0431 243.369,52.3764 243.5,51.5 Z"/></g>
<g><path style="opacity:1" fill="#2b76db" d="M 243.5,51.5 C 240.269,53.2199 237.436,55.5532 235,58.5C 235.493,55.8633 236.827,53.53 239,51.5C 239.195,49.7928 239.195,48.1261 239,46.5C 240.707,48.0375 242.207,49.7041 243.5,51.5 Z"/></g>
<g><path style="opacity:1" fill="#2476da" d="M 224.5,36.5 C 226.237,39.008 227.07,42.008 227,45.5C 228.685,43.9825 230.185,42.3159 231.5,40.5C 231.833,40.8333 232.167,41.1667 232.5,41.5C 230.157,44.2072 227.823,46.8739 225.5,49.5C 224.679,46.5535 224.179,43.5535 224,40.5C 222.471,41.7287 221.304,43.2287 220.5,45C 219.668,45.6877 219.002,45.521 218.5,44.5C 220.909,42.0976 222.909,39.4309 224.5,36.5 Z"/></g>
<g><path style="opacity:1" fill="#3b7bdf" d="M 214.5,30.5 C 216.954,31.2271 219.287,32.2271 221.5,33.5C 222.773,34.0768 222.773,34.7435 221.5,35.5C 219.503,34.2526 217.503,33.4192 215.5,33C 215.043,33.414 214.709,33.914 214.5,34.5C 216.028,35.8613 217.695,37.028 219.5,38C 217.415,38.5288 215.582,38.0288 214,36.5C 212.831,37.0085 211.998,37.8419 211.5,39C 213,40.1145 214.667,40.9479 216.5,41.5C 217.833,42.1667 217.833,42.8333 216.5,43.5C 213.6,42.5568 211.267,40.8901 209.5,38.5C 211.192,35.7692 212.858,33.1025 214.5,30.5 Z"/></g>
<g><path style="opacity:1" fill="#2e76d9" d="M 204.5,25.5 C 205.434,26.5676 205.768,27.901 205.5,29.5C 214.37,27.7975 214.703,28.7975 206.5,32.5C 205.852,34.1492 204.852,35.4825 203.5,36.5C 203.167,36.1667 202.833,35.8333 202.5,35.5C 204.184,32.3876 204.85,29.0543 204.5,25.5 Z"/></g>
<g><path style="opacity:1" fill="#6eabe6" d="M 214.5,30.5 C 216.607,29.5318 218.941,29.1984 221.5,29.5C 221.5,30.8333 221.5,32.1667 221.5,33.5C 219.287,32.2271 216.954,31.2271 214.5,30.5 Z"/></g>
<g><path style="opacity:1" fill="#3177dd" d="M 191.5,20.5 C 192.586,20.62 193.253,21.2867 193.5,22.5C 192.934,24.6969 192.268,26.8636 191.5,29C 192.098,30.3012 193.098,31.1345 194.5,31.5C 196.719,28.8764 198.386,25.8764 199.5,22.5C 200.273,25.8494 199.606,29.0161 197.5,32C 194.653,32.9439 192.153,32.4439 190,30.5C 189.566,27.0317 190.066,23.6984 191.5,20.5 Z"/></g>
<g><path style="opacity:1" fill="#2972db" d="M 179.5,16.5 C 183.325,16.5935 186.325,18.0935 188.5,21C 187.783,22.531 186.783,23.8643 185.5,25C 186.547,26.5777 186.547,28.0777 185.5,29.5C 184.573,27.8872 183.739,26.2205 183,24.5C 181.989,23.6634 180.822,23.33 179.5,23.5C 179.762,24.9778 179.429,26.3112 178.5,27.5C 178.167,26.8333 177.833,26.1667 177.5,25.5C 178.328,22.5212 178.995,19.5212 179.5,16.5 Z"/></g>
<g><path style="opacity:1" fill="#357ad9" d="M 138.5,13.5 C 141.027,15.5102 142.861,18.1769 144,21.5C 144.869,18.6697 146.036,16.003 147.5,13.5C 147.833,14 148.167,14.5 148.5,15C 146.993,18.0212 145.993,21.1879 145.5,24.5C 144.5,24.5 143.5,24.5 142.5,24.5C 141.452,20.7356 140.119,17.069 138.5,13.5 Z"/></g>
<g><path style="opacity:1" fill="#c9dff6" d="M 181.5,18.5 C 183.117,19.038 184.784,19.3713 186.5,19.5C 186.5,20.5 186.5,21.5 186.5,22.5C 184.801,22.6602 183.134,22.4935 181.5,22C 180.316,20.8545 180.316,19.6879 181.5,18.5 Z"/></g>
<g><path style="opacity:1" fill="#367ada" d="M 153.5,13.5 C 154.675,13.281 155.675,13.6143 156.5,14.5C 158.794,17.6893 159.794,21.0226 159.5,24.5C 156.506,21.9426 153.506,21.9426 150.5,24.5C 150.167,24.1667 149.833,23.8333 149.5,23.5C 151.4,20.3707 152.733,17.0373 153.5,13.5 Z"/></g>
<g><path style="opacity:1" fill="#3b7bdd" d="M 168.5,15.5 C 171.428,14.6009 174.428,14.9342 177.5,16.5C 176.311,17.4287 174.978,17.762 173.5,17.5C 173.795,20.7341 173.129,23.7341 171.5,26.5C 170.63,24.242 170.63,21.9087 171.5,19.5C 171.38,17.4115 170.38,16.0782 168.5,15.5 Z"/></g>
<g><path style="opacity:1" fill="#bedbed" d="M 154.5,16.5 C 156.104,17.287 156.771,18.6203 156.5,20.5C 155.5,20.5 154.5,20.5 153.5,20.5C 153.433,19.0413 153.766,17.7079 154.5,16.5 Z"/></g>
<g><path style="opacity:1" fill="#3d82dc" d="M 40.5,68.5 C 44.0034,68.1289 47.0034,69.1289 49.5,71.5C 49.7174,74.4206 49.0507,77.0872 47.5,79.5C 40.9607,80.968 37.6274,78.3013 37.5,71.5C 38.8333,70.8333 39.8333,69.8333 40.5,68.5 Z"/></g>
<g><path style="opacity:1" fill="#8abce8" d="M 40.5,68.5 C 39.8333,69.8333 38.8333,70.8333 37.5,71.5C 35.7748,71.1575 35.2748,70.1575 36,68.5C 37.4902,67.2721 38.9902,67.2721 40.5,68.5 Z"/></g>
<g><path style="opacity:1" fill="#e6f0f9" d="M 40.5,70.5 C 45.8333,69.8333 48.1667,72.1667 47.5,77.5C 41.2691,78.606 38.9358,76.2726 40.5,70.5 Z"/></g>
<g><path style="opacity:1" fill="#237ce3" d="M 117.5,68.5 C 118.919,69.4511 120.585,69.7845 122.5,69.5C 123.374,72.7893 124.041,76.1226 124.5,79.5C 124.5,79.8333 124.5,80.1667 124.5,80.5C 120.049,81.1491 115.716,82.3158 111.5,84C 93.1604,91.0162 79.6604,103.183 71,120.5C 71.1747,116.638 72.1747,112.971 74,109.5C 83.8748,90.788 98.3748,77.1214 117.5,68.5 Z"/></g>
<g><path style="opacity:1" fill="#3179e0" d="M 257.5,65.5 C 259.85,67.2133 260.85,69.5466 260.5,72.5C 257.103,77.3699 253.269,77.7032 249,73.5C 248.294,67.3956 251.127,64.7289 257.5,65.5 Z"/></g>
<g><path style="opacity:1" fill="#9ac7ef" d="M 260.5,72.5 C 260.85,69.5466 259.85,67.2133 257.5,65.5C 259.617,64.0658 261.284,64.5658 262.5,67C 262.046,69.0299 261.38,70.8632 260.5,72.5 Z"/></g>
<g><path style="opacity:1" fill="#e5f1fa" d="M 252.5,67.5 C 257.895,66.5548 259.561,68.5548 257.5,73.5C 254.123,76.4854 251.79,75.8187 250.5,71.5C 250.752,69.9271 251.418,68.5938 252.5,67.5 Z"/></g>
<g><path style="opacity:1" fill="#1d7ae5" d="M 213.5,50.5 C 217.202,52.0236 220.536,54.1903 223.5,57C 237.595,69.0594 248.928,83.226 257.5,99.5C 259.754,104.934 261.42,110.601 262.5,116.5C 262.5,117.167 262.167,117.5 261.5,117.5C 255.552,103.482 246.552,91.6482 234.5,82C 225.039,74.0239 214.705,67.5239 203.5,62.5C 204.612,60.4006 205.279,58.0673 205.5,55.5C 206.552,55.6495 207.552,55.4828 208.5,55C 207.327,51.8897 207.827,51.723 210,54.5C 210.69,52.6498 211.856,51.3164 213.5,50.5 Z"/></g>
<g><path style="opacity:1" fill="#97c0f2" d="M 49.5,71.5 C 50.2663,73.6843 50.9329,76.0177 51.5,78.5C 50.3112,79.4287 48.9778,79.762 47.5,79.5C 49.0507,77.0872 49.7174,74.4206 49.5,71.5 Z"/></g>
<g><path style="opacity:1" fill="#3880e3" d="M 262.5,74.5 C 263.995,74.4148 264.995,75.0815 265.5,76.5C 263.545,78.6684 262.879,81.0017 263.5,83.5C 265.078,82.3595 266.744,81.8595 268.5,82C 265.74,84.9385 262.406,86.7718 258.5,87.5C 258.807,84.7201 259.807,82.2201 261.5,80C 260.046,78.3409 258.713,78.6743 257.5,81C 256.365,81.7494 255.365,81.5827 254.5,80.5C 257.492,78.8288 260.159,76.8288 262.5,74.5 Z"/></g>
<g><path style="opacity:1" fill="#f0f6fc" d="M 227.5,118.5 C 226.504,118.586 225.671,118.252 225,117.5C 219.464,119.425 213.631,120.092 207.5,119.5C 207.813,116.753 207.48,114.086 206.5,111.5C 205.516,114.428 205.183,117.428 205.5,120.5C 204.5,120.5 203.5,120.5 202.5,120.5C 202.038,123.905 201.705,127.072 201.5,130C 203.193,134.378 203.693,138.878 203,143.5C 201.97,139.11 200.804,134.777 199.5,130.5C 200.097,130.265 200.43,129.765 200.5,129C 189.371,102.427 169.371,90.7603 140.5,94C 126.844,97.1568 115.844,104.323 107.5,115.5C 107.067,112.715 105.734,110.381 103.5,108.5C 104.833,107.167 104.833,105.833 103.5,104.5C 104.274,103.289 105.107,103.289 106,104.5C 106.498,101.518 106.665,98.5184 106.5,95.5C 102.689,95.4042 102.689,94.7376 106.5,93.5C 105.185,92.1054 105.519,91.1054 107.5,90.5C 106.984,91.7582 107.65,92.7582 109.5,93.5C 111.086,91.8273 111.753,89.8273 111.5,87.5C 113.527,87.6621 115.527,87.4955 117.5,87C 116.833,86.3333 116.167,85.6667 115.5,85C 118.561,83.4696 121.561,81.9696 124.5,80.5C 124.5,80.1667 124.5,79.8333 124.5,79.5C 156.401,72.5974 185.401,78.7641 211.5,98C 218.6,103.583 223.934,110.416 227.5,118.5 Z"/></g>
<g><path style="opacity:1" fill="#1b79e4" d="M 191.5,71.5 C 203.389,79.2194 213.556,88.886 222,100.5C 227.181,108.859 230.681,117.859 232.5,127.5C 231.396,124.19 229.729,121.19 227.5,118.5C 223.934,110.416 218.6,103.583 211.5,98C 185.401,78.7641 156.401,72.5974 124.5,79.5C 124.041,76.1226 123.374,72.7893 122.5,69.5C 120.585,69.7845 118.919,69.4511 117.5,68.5C 121.296,66.7309 125.296,65.2309 129.5,64C 151.044,59.6098 171.71,62.1098 191.5,71.5 Z"/></g>
<g><path style="opacity:1" fill="#3e85de" d="M 33.5,79.5 C 36.8108,80.4549 39.9774,81.7882 43,83.5C 43.2238,88.2673 41.0571,90.7673 36.5,91C 33.9602,89.5688 31.6268,87.9022 29.5,86C 30.7125,83.7381 32.0459,81.5715 33.5,79.5 Z"/></g>
<g><path style="opacity:1" fill="#d9e9f8" d="M 38.5,83.5 C 39.9953,83.4148 40.9953,84.0815 41.5,85.5C 40.5,86.8333 39.5,88.1667 38.5,89.5C 36.0006,87.6045 36.0006,85.6045 38.5,83.5 Z"/></g>
<g><path style="opacity:1" fill="#d0e5f7" d="M 32.5,82.5 C 35.5225,82.1052 36.5225,83.1052 35.5,85.5C 34.1667,86.8333 32.8333,86.8333 31.5,85.5C 32.1272,84.5832 32.4606,83.5832 32.5,82.5 Z"/></g>
<g><path style="opacity:1" fill="#1d7ce2" d="M 282.5,91.5 C 282.5,92.8333 281.833,93.5 280.5,93.5C 280.672,92.5084 280.338,91.8417 279.5,91.5C 279.369,90.6236 279.702,89.9569 280.5,89.5C 281.182,90.2427 281.849,90.9094 282.5,91.5 Z"/></g>
<g><path style="opacity:1" fill="#357ce1" d="M 274.5,90.5 C 274.769,92.4286 274.269,94.0953 273,95.5C 272.957,89.105 270.123,87.2716 264.5,90C 262.916,92.8249 263.582,94.9916 266.5,96.5C 267.499,92.7628 268.832,92.7628 270.5,96.5C 268.288,98.3637 265.955,98.697 263.5,97.5C 262.744,95.7334 262.077,93.9001 261.5,92C 265.226,85.4793 269.559,84.9793 274.5,90.5 Z"/></g>
<g><path style="opacity:1" fill="#237fe6" d="M 199.5,130.5 C 197.25,123.41 192.917,117.91 186.5,114C 178.584,107.709 169.584,104.209 159.5,103.5C 141.443,100.245 125.443,104.578 111.5,116.5C 108.528,118.641 106.028,121.308 104,124.5C 104.559,121.363 105.726,118.363 107.5,115.5C 115.844,104.323 126.844,97.1568 140.5,94C 169.371,90.7603 189.371,102.427 200.5,129C 200.43,129.765 200.097,130.265 199.5,130.5 Z"/></g>
<g><path style="opacity:0.827" fill="#83b1e8" d="M 287.5,105.5 C 288.738,107.214 289.405,109.214 289.5,111.5C 287.926,109.898 287.259,107.898 287.5,105.5 Z"/></g>
<g><path style="opacity:1" fill="#3986e0" d="M 20.5,106.5 C 23.9399,107.091 27.2732,108.091 30.5,109.5C 31.3857,110.325 31.719,111.325 31.5,112.5C 28.4816,112.335 25.4816,112.502 22.5,113C 24.3359,114.419 26.3359,115.586 28.5,116.5C 29.4287,117.689 29.762,119.022 29.5,120.5C 25.4468,119.65 21.4468,118.484 17.5,117C 26.6631,118.444 27.3297,117.278 19.5,113.5C 18.6143,112.675 18.281,111.675 18.5,110.5C 21.5884,111.068 24.5884,111.068 27.5,110.5C 24.5735,109.889 22.2401,108.556 20.5,106.5 Z"/></g>
<g><path style="opacity:1" fill="#f1f7fd" d="M 159.5,103.5 C 151.368,103.114 143.368,103.781 135.5,105.5C 135.5,106.5 135.5,107.5 135.5,108.5C 134.448,108.351 133.448,108.517 132.5,109C 134.277,110.804 136.444,111.637 139,111.5C 143.813,110.547 148.646,110.38 153.5,111C 152.854,116.6 152.187,122.1 151.5,127.5C 151.666,122.489 151.499,117.489 151,112.5C 141.401,123.056 131.901,133.723 122.5,144.5C 129.468,145.497 136.468,145.83 143.5,145.5C 145.607,146.468 147.941,146.802 150.5,146.5C 150.5,152.167 150.5,157.833 150.5,163.5C 150.5,169.5 150.5,175.5 150.5,181.5C 149.674,177.018 149.174,172.351 149,167.5C 148.04,172.884 147.707,178.217 148,183.5C 146.983,181.624 146.149,179.624 145.5,177.5C 144.619,181.823 143.952,186.489 143.5,191.5C 146.167,191.5 148.833,191.5 151.5,191.5C 151.5,194.167 151.5,196.833 151.5,199.5C 154.167,199.5 156.833,199.5 159.5,199.5C 159.351,200.552 159.517,201.552 160,202.5C 160.539,199.471 161.206,196.471 162,193.5C 163.459,195.432 164.625,197.432 165.5,199.5C 155.994,214.851 150.16,231.518 148,249.5C 146.528,220.9 136.028,196.234 116.5,175.5C 117.303,174.577 117.47,173.577 117,172.5C 115.703,173.784 114.536,173.617 113.5,172C 114.727,170.413 114.394,169.079 112.5,168C 114.333,168.167 116.167,168.333 118,168.5C 118.5,168 119,167.5 119.5,167C 117.336,166.086 115.336,164.919 113.5,163.5C 116.005,161.747 118.671,160.247 121.5,159C 119.771,157.211 119.104,155.044 119.5,152.5C 118.5,152.5 117.5,152.5 116.5,152.5C 116.719,151.325 116.386,150.325 115.5,149.5C 113.291,148.894 111.124,148.227 109,147.5C 108.911,145.887 109.745,144.72 111.5,144C 110.552,143.517 109.552,143.351 108.5,143.5C 108.223,140.552 108.556,137.719 109.5,135C 105.844,132.851 103.844,129.684 103.5,125.5C 104.675,125.719 105.675,125.386 106.5,124.5C 107.783,120.058 109.283,119.725 111,123.5C 110.919,121.015 111.086,118.681 111.5,116.5C 125.443,104.578 141.443,100.245 159.5,103.5 Z"/></g>
<g><path style="opacity:1" fill="#f3f8fd" d="M 159.5,103.5 C 169.584,104.209 178.584,107.709 186.5,114C 192.917,117.91 197.25,123.41 199.5,130.5C 200.804,134.777 201.97,139.11 203,143.5C 203.693,138.878 203.193,134.378 201.5,130C 201.705,127.072 202.038,123.905 202.5,120.5C 203.5,120.5 204.5,120.5 205.5,120.5C 205.183,117.428 205.516,114.428 206.5,111.5C 207.48,114.086 207.813,116.753 207.5,119.5C 213.631,120.092 219.464,119.425 225,117.5C 225.671,118.252 226.504,118.586 227.5,118.5C 229.729,121.19 231.396,124.19 232.5,127.5C 232.794,132.261 233.627,136.928 235,141.5C 234.231,134.206 233.898,126.872 234,119.5C 234.333,120.167 234.667,120.833 235,121.5C 235.605,119.519 236.605,119.185 238,120.5C 238.654,125.321 239.154,129.987 239.5,134.5C 242.086,135.48 244.753,135.813 247.5,135.5C 247.5,138.167 247.5,140.833 247.5,143.5C 244.267,144.609 240.934,145.442 237.5,146C 239.881,146.223 241.547,147.39 242.5,149.5C 209.948,155.745 184.282,172.412 165.5,199.5C 164.625,197.432 163.459,195.432 162,193.5C 161.206,196.471 160.539,199.471 160,202.5C 159.517,201.552 159.351,200.552 159.5,199.5C 156.833,199.5 154.167,199.5 151.5,199.5C 151.5,196.833 151.5,194.167 151.5,191.5C 148.833,191.5 146.167,191.5 143.5,191.5C 143.952,186.489 144.619,181.823 145.5,177.5C 146.149,179.624 146.983,181.624 148,183.5C 147.707,178.217 148.04,172.884 149,167.5C 149.174,172.351 149.674,177.018 150.5,181.5C 159.928,170.231 169.595,159.064 179.5,148C 170.151,147.651 160.818,147.151 151.5,146.5C 151.5,142.833 151.5,139.167 151.5,135.5C 151.5,132.833 151.5,130.167 151.5,127.5C 152.187,122.1 152.854,116.6 153.5,111C 148.646,110.38 143.813,110.547 139,111.5C 136.444,111.637 134.277,110.804 132.5,109C 133.448,108.517 134.448,108.351 135.5,108.5C 135.5,107.5 135.5,106.5 135.5,105.5C 143.368,103.781 151.368,103.114 159.5,103.5 Z"/></g>
<g><path style="opacity:1" fill="#74a5e6" d="M 262.5,116.5 C 264.637,120.016 265.303,123.683 264.5,127.5C 263.5,124.167 262.5,120.833 261.5,117.5C 262.167,117.5 262.5,117.167 262.5,116.5 Z"/></g>
<g><path style="opacity:1" fill="#4289e0" d="M 16.5,121.5 C 20.4517,122.272 24.4517,122.605 28.5,122.5C 28.5,123.5 28.5,124.5 28.5,125.5C 23.974,125.103 19.974,123.77 16.5,121.5 Z"/></g>
<g><path style="opacity:1" fill="#3480df" d="M 15.5,128.5 C 19.2984,127.517 23.2984,127.183 27.5,127.5C 27.719,128.675 27.3857,129.675 26.5,130.5C 23.8244,131.838 21.1578,133.171 18.5,134.5C 21.1436,135.396 23.8103,136.229 26.5,137C 22.5138,137.499 18.5138,137.666 14.5,137.5C 14.33,136.178 14.6634,135.011 15.5,134C 17.7409,132.478 20.0742,131.145 22.5,130C 20.3225,128.798 17.9892,128.298 15.5,128.5 Z"/></g>
<g><path style="opacity:1" fill="#187ce7" d="M 151.5,127.5 C 151.5,130.167 151.5,132.833 151.5,135.5C 150.521,138.625 150.187,141.958 150.5,145.5C 148.167,145.5 145.833,145.5 143.5,145.5C 136.468,145.83 129.468,145.497 122.5,144.5C 131.901,133.723 141.401,123.056 151,112.5C 151.499,117.489 151.666,122.489 151.5,127.5 Z"/></g>
<g><path style="opacity:1" fill="#3781dd" d="M 26.5,141.5 C 22.7016,142.483 18.7016,142.817 14.5,142.5C 16.0478,141.206 18.0478,140.539 20.5,140.5C 22.6965,140.505 24.6965,140.838 26.5,141.5 Z"/></g>
<g><path style="opacity:1" fill="#84bcf0" d="M 26.5,141.5 C 26.8333,141.5 27.1667,141.5 27.5,141.5C 25.777,142.8 23.6103,143.467 21,143.5C 18.6392,143.496 16.4726,143.163 14.5,142.5C 18.7016,142.817 22.7016,142.483 26.5,141.5 Z"/></g>
<g><path style="opacity:1" fill="#87bcf0" d="M 151.5,135.5 C 151.5,139.167 151.5,142.833 151.5,146.5C 151.822,152.358 151.489,158.025 150.5,163.5C 150.5,157.833 150.5,152.167 150.5,146.5C 147.941,146.802 145.607,146.468 143.5,145.5C 145.833,145.5 148.167,145.5 150.5,145.5C 150.187,141.958 150.521,138.625 151.5,135.5 Z"/></g>
<g><path style="opacity:1" fill="#187ce7" d="M 151.5,146.5 C 160.818,147.151 170.151,147.651 179.5,148C 169.595,159.064 159.928,170.231 150.5,181.5C 150.5,175.5 150.5,169.5 150.5,163.5C 151.489,158.025 151.822,152.358 151.5,146.5 Z"/></g>
<g><path style="opacity:1" fill="#3a80e0" d="M 14.5,154.5 C 14.2317,151.881 14.565,149.381 15.5,147C 16.3317,146.312 16.9984,146.479 17.5,147.5C 16.6518,149.409 16.3184,151.409 16.5,153.5C 17.5,153.5 18.5,153.5 19.5,153.5C 18.8069,148.017 20.9735,146.017 26,147.5C 26.7581,149.769 26.5914,151.936 25.5,154C 24.6683,154.688 24.0016,154.521 23.5,153.5C 24.6808,151.802 24.6808,150.135 23.5,148.5C 22.0937,150.566 20.7604,152.732 19.5,155C 17.735,155.64 16.0683,155.473 14.5,154.5 Z"/></g>
<g><path style="opacity:1" fill="#1579e6" d="M 116.5,175.5 C 136.028,196.234 146.528,220.9 148,249.5C 150.16,231.518 155.994,214.851 165.5,199.5C 184.282,172.412 209.948,155.745 242.5,149.5C 250.392,147.84 258.392,147.173 266.5,147.5C 266.5,150.167 266.5,152.833 266.5,155.5C 265.915,160.515 265.248,165.515 264.5,170.5C 236.143,170.235 210.143,177.735 186.5,193C 181.664,196.67 177.331,200.836 173.5,205.5C 161.417,218.999 153.584,234.666 150,252.5C 155.462,236.883 164.295,223.55 176.5,212.5C 197.141,195.726 220.807,186.393 247.5,184.5C 251.971,183.911 255.971,184.577 259.5,186.5C 257.701,192.382 255.035,197.882 251.5,203C 236.588,202.618 221.921,204.285 207.5,208C 203.939,209.232 200.606,210.732 197.5,212.5C 175.408,221.757 158.908,237.09 148,258.5C 147.536,257.906 147.369,257.239 147.5,256.5C 147.57,252.575 146.903,248.909 145.5,245.5C 136.904,209.074 114.904,184.907 79.5,173C 65.0822,168.75 50.4156,165.583 35.5,163.5C 35.1373,162.817 34.8039,162.15 34.5,161.5C 34.7471,158.061 34.4137,154.728 33.5,151.5C 33.5,147.833 33.5,144.167 33.5,140.5C 65.5291,142.274 93.1958,153.941 116.5,175.5 Z"/></g>
<g><path style="opacity:1" fill="#257ae0" d="M 17.5,164.5 C 14.9172,163.908 14.9172,163.242 17.5,162.5C 20.1147,161.731 22.7814,161.397 25.5,161.5C 25.238,160.022 25.5713,158.689 26.5,157.5C 27.9084,162.227 27.9084,164.227 26.5,163.5C 23.2869,163.19 20.2869,163.523 17.5,164.5 Z"/></g>
<g><path style="opacity:1" fill="#4a8de9" d="M 282.5,91.5 C 284.935,95.7994 286.602,100.466 287.5,105.5C 287.259,107.898 287.926,109.898 289.5,111.5C 294.944,136.157 294.778,160.823 289,185.5C 286.549,194.707 283.049,203.374 278.5,211.5C 278.768,209.901 278.434,208.568 277.5,207.5C 294.983,169.918 295.983,131.918 280.5,93.5C 281.833,93.5 282.5,92.8333 282.5,91.5 Z"/></g>
<g><path style="opacity:1" fill="#edf5fd" d="M 279.5,91.5 C 280.338,91.8417 280.672,92.5084 280.5,93.5C 295.983,131.918 294.983,169.918 277.5,207.5C 254.023,251.764 217.356,277.597 167.5,285C 154.758,285.812 142.091,285.646 129.5,284.5C 128.391,283.71 127.058,283.21 125.5,283C 127.5,282.667 129.5,282.333 131.5,282C 127.892,281.926 126.892,280.426 128.5,277.5C 128.518,275.627 128.018,275.294 127,276.5C 126.506,274.866 126.34,273.199 126.5,271.5C 126.5,270.833 126.5,270.167 126.5,269.5C 128.042,268.699 129.708,268.366 131.5,268.5C 131.5,270.5 131.5,272.5 131.5,274.5C 131.215,276.288 131.548,277.955 132.5,279.5C 133.919,278.995 134.585,277.995 134.5,276.5C 135.302,275.048 135.802,273.382 136,271.5C 136.198,273.382 136.698,275.048 137.5,276.5C 140.266,280.731 143.766,281.398 148,278.5C 150.408,274.034 149.575,270.367 145.5,267.5C 142.344,266.566 139.011,265.899 135.5,265.5C 135.439,262.95 134.106,261.45 131.5,261C 132.793,260.51 134.127,260.343 135.5,260.5C 139.5,260.5 143.5,260.5 147.5,260.5C 148.167,260.5 148.833,260.5 149.5,260.5C 187.033,260.231 217.699,245.731 241.5,217C 230.146,214.979 218.813,215.145 207.5,217.5C 203.305,217.618 199.305,216.785 195.5,215C 196.381,214.292 197.047,213.458 197.5,212.5C 200.606,210.732 203.939,209.232 207.5,208C 221.921,204.285 236.588,202.618 251.5,203C 255.035,197.882 257.701,192.382 259.5,186.5C 260.404,185.791 260.737,184.791 260.5,183.5C 255.968,183.182 251.634,183.515 247.5,184.5C 220.807,186.393 197.141,195.726 176.5,212.5C 173.124,211.139 172.124,208.805 173.5,205.5C 177.331,200.836 181.664,196.67 186.5,193C 210.143,177.735 236.143,170.235 264.5,170.5C 265.248,165.515 265.915,160.515 266.5,155.5C 266.911,159.794 267.911,163.96 269.5,168C 268.207,168.49 266.873,168.657 265.5,168.5C 265.191,171.346 263.525,172.846 260.5,173C 260.833,173.333 261.167,173.667 261.5,174C 259.905,173.383 258.572,173.716 257.5,175C 261.066,175.957 264.066,175.124 266.5,172.5C 267.086,172.709 267.586,173.043 268,173.5C 268.196,171.714 269.029,170.381 270.5,169.5C 275.1,170.443 279.767,170.777 284.5,170.5C 284.737,171.791 284.404,172.791 283.5,173.5C 282.848,172.275 281.681,171.608 280,171.5C 276.857,172.107 273.69,172.441 270.5,172.5C 270.33,173.822 270.663,174.989 271.5,176C 274.435,177.715 277.268,179.548 280,181.5C 281.751,181.172 281.751,180.505 280,179.5C 279.505,177.527 279.338,175.527 279.5,173.5C 280.5,173.5 281.5,173.5 282.5,173.5C 281.537,174.363 281.537,175.03 282.5,175.5C 284.413,174.627 286.247,173.627 288,172.5C 288.667,170.833 288.667,169.167 288,167.5C 286.775,171.18 285.942,170.847 285.5,166.5C 282.214,165.793 278.881,165.46 275.5,165.5C 275.5,166.5 275.5,167.5 275.5,168.5C 274.167,168.5 272.833,168.5 271.5,168.5C 271.232,166.901 271.566,165.568 272.5,164.5C 272.833,168.5 273.167,168.5 273.5,164.5C 277.182,164.665 280.848,164.499 284.5,164C 281.576,163.012 278.576,162.346 275.5,162C 274.809,160.933 274.309,159.766 274,158.5C 273.802,160.382 273.302,162.048 272.5,163.5C 271.032,159.627 270.532,155.627 271,151.5C 273.045,153.043 274.545,152.71 275.5,150.5C 273.799,150.034 272.299,150.034 271,150.5C 270.818,147.774 270.318,145.107 269.5,142.5C 268.109,143.645 266.776,143.645 265.5,142.5C 265.709,141.914 266.043,141.414 266.5,141C 265.671,136.558 265.004,132.058 264.5,127.5C 265.303,123.683 264.637,120.016 262.5,116.5C 261.42,110.601 259.754,104.934 257.5,99.5C 257.222,97.6536 257.889,96.3202 259.5,95.5C 260.622,96.6302 261.956,97.2969 263.5,97.5C 265.955,98.697 268.288,98.3637 270.5,96.5C 268.832,92.7628 267.499,92.7628 266.5,96.5C 263.582,94.9916 262.916,92.8249 264.5,90C 270.123,87.2716 272.957,89.105 273,95.5C 274.269,94.0953 274.769,92.4286 274.5,90.5C 274.461,89.2438 274.961,88.2438 276,87.5C 276.416,89.5503 277.583,90.8836 279.5,91.5 Z"/></g>
<g><path style="opacity:1" fill="#297ae5" d="M 272.5,164.5 C 272.5,164.167 272.5,163.833 272.5,163.5C 273.302,162.048 273.802,160.382 274,158.5C 274.309,159.766 274.809,160.933 275.5,162C 278.576,162.346 281.576,163.012 284.5,164C 280.848,164.499 277.182,164.665 273.5,164.5C 273.167,168.5 272.833,168.5 272.5,164.5 Z"/></g>
<g><path style="opacity:1" fill="#2f7ee8" d="M 273.5,153.5 C 277.548,153.84 281.548,154.506 285.5,155.5C 282.894,156.652 280.227,156.818 277.5,156C 275.563,155.878 274.23,155.045 273.5,153.5 Z"/></g>
<g><path style="opacity:1" fill="#2d7ce1" d="M 275.5,150.5 C 271.891,142.243 274.558,139.077 283.5,141C 286.343,144.619 286.01,147.952 282.5,151C 280.071,151.703 277.738,151.537 275.5,150.5 Z"/></g>
<g><path style="opacity:1" fill="#e7f2fc" d="M 276.5,142.5 C 278.857,142.337 281.19,142.503 283.5,143C 284.98,148.188 282.98,150.188 277.5,149C 275.316,147.102 274.983,144.936 276.5,142.5 Z"/></g>
<g><path style="opacity:1" fill="#3483e5" d="M 272.5,127.5 C 276.555,127.176 280.555,127.509 284.5,128.5C 282.5,130.5 280.5,132.5 278.5,134.5C 280.805,134.692 283.138,135.026 285.5,135.5C 281.59,137.346 277.59,137.68 273.5,136.5C 275.356,133.81 277.689,131.644 280.5,130C 277.325,130.053 274.658,129.22 272.5,127.5 Z"/></g>
<g><path style="opacity:1" fill="#2f7ae2" d="M 277.5,115.5 C 283.575,115.803 284.909,118.47 281.5,123.5C 281.254,121.78 281.254,119.78 281.5,117.5C 280.167,117.5 278.833,117.5 277.5,117.5C 277.756,119.792 277.423,121.959 276.5,124C 272.945,125.123 270.945,123.789 270.5,120C 270.78,118.605 271.447,117.438 272.5,116.5C 273.547,117.922 273.547,119.422 272.5,121C 272.613,122.28 273.28,123.113 274.5,123.5C 275.081,120.594 276.081,117.927 277.5,115.5 Z"/></g>
<g><path style="opacity:1" fill="#297ce6" d="M 283.5,173.5 C 283.167,173.5 282.833,173.5 282.5,173.5C 281.5,173.5 280.5,173.5 279.5,173.5C 279.338,175.527 279.505,177.527 280,179.5C 281.751,180.505 281.751,181.172 280,181.5C 277.268,179.548 274.435,177.715 271.5,176C 270.663,174.989 270.33,173.822 270.5,172.5C 273.69,172.441 276.857,172.107 280,171.5C 281.681,171.608 282.848,172.275 283.5,173.5 Z"/></g>
<g><path style="opacity:1" fill="#a1cdf5" d="M 273.5,173.5 C 275.167,173.5 276.833,173.5 278.5,173.5C 278.822,177.439 277.489,178.272 274.5,176C 273.748,175.329 273.414,174.496 273.5,173.5 Z"/></g>
<g><path style="opacity:1" fill="#e9f2fc" d="M 14.5,154.5 C 15.2297,156.045 16.563,156.878 18.5,157C 15.1592,158.85 13.8258,161.683 14.5,165.5C 15.791,165.737 16.791,165.404 17.5,164.5C 20.1667,164.5 22.8333,164.5 25.5,164.5C 25.6085,166.514 24.9418,168.18 23.5,169.5C 21.1579,169.504 19.1579,170.337 17.5,172C 19.1341,172.494 20.8008,172.66 22.5,172.5C 22.067,175.285 20.7337,177.619 18.5,179.5C 18.8333,179.833 19.1667,180.167 19.5,180.5C 20.8333,179.5 22.1667,178.5 23.5,177.5C 25.5,178.833 27.5,178.833 29.5,177.5C 30.3211,174.554 30.3211,171.554 29.5,168.5C 28.42,165.257 28.2534,161.924 29,158.5C 30.3333,159.833 31.6667,159.833 33,158.5C 33.2321,159.737 33.7321,160.737 34.5,161.5C 34.8039,162.15 35.1373,162.817 35.5,163.5C 50.4156,165.583 65.0822,168.75 79.5,173C 114.904,184.907 136.904,209.074 145.5,245.5C 145.672,246.492 145.338,247.158 144.5,247.5C 138.051,228.621 126.718,213.287 110.5,201.5C 90.3411,188.169 68.1744,180.502 44,178.5C 42.1667,178.833 40.3333,179.167 38.5,179.5C 41.0406,185.792 43.374,192.125 45.5,198.5C 88.1657,197.329 121.166,214.329 144.5,249.5C 144.707,252.241 145.707,254.574 147.5,256.5C 147.369,257.239 147.536,257.906 148,258.5C 158.908,237.09 175.408,221.757 197.5,212.5C 197.047,213.458 196.381,214.292 195.5,215C 199.305,216.785 203.305,217.618 207.5,217.5C 188.489,221.76 172.323,231.093 159,245.5C 155.312,250.218 152.145,255.218 149.5,260.5C 148.833,260.5 148.167,260.5 147.5,260.5C 129.307,228.555 101.64,212.222 64.5,211.5C 61.5,211.667 58.5,211.833 55.5,212C 75.4598,239.15 102.127,255.317 135.5,260.5C 134.127,260.343 132.793,260.51 131.5,261C 134.106,261.45 135.439,262.95 135.5,265.5C 139.011,265.899 142.344,266.566 145.5,267.5C 139.415,267.291 136.749,270.291 137.5,276.5C 136.698,275.048 136.198,273.382 136,271.5C 135.802,273.382 135.302,275.048 134.5,276.5C 134.26,273.421 134.593,270.421 135.5,267.5C 134.675,266.614 133.675,266.281 132.5,266.5C 132.806,269.385 132.473,272.052 131.5,274.5C 131.5,272.5 131.5,270.5 131.5,268.5C 129.708,268.366 128.042,268.699 126.5,269.5C 127.23,267.955 128.563,267.122 130.5,267C 127.436,265.634 124.436,265.134 121.5,265.5C 122.325,266.386 123.325,266.719 124.5,266.5C 123.995,269.521 123.328,272.521 122.5,275.5C 122.833,276.167 123.167,276.833 123.5,277.5C 124.801,275.556 125.801,273.556 126.5,271.5C 126.34,273.199 126.506,274.866 127,276.5C 128.018,275.294 128.518,275.627 128.5,277.5C 126.892,280.426 127.892,281.926 131.5,282C 129.5,282.333 127.5,282.667 125.5,283C 127.058,283.21 128.391,283.71 129.5,284.5C 73.4508,274.391 35.2841,242.725 15,189.5C 12.4596,180.631 10.6262,171.631 9.5,162.5C 9.33391,156.824 9.50058,151.157 10,145.5C 10.3742,146.416 10.8742,147.25 11.5,148C 10.2888,148.893 10.2888,149.726 11.5,150.5C 12.2508,149.624 12.7508,148.624 13,147.5C 13.1667,148.167 13.3333,148.833 13.5,149.5C 12.2677,151.05 11.7677,152.717 12,154.5C 12.7697,153.402 13.603,153.402 14.5,154.5 Z"/></g>
<g><path style="opacity:1" fill="#3781e0" d="M 29.5,168.5 C 30.3211,171.554 30.3211,174.554 29.5,177.5C 27.5,178.833 25.5,178.833 23.5,177.5C 22.1667,178.5 20.8333,179.5 19.5,180.5C 19.1667,180.167 18.8333,179.833 18.5,179.5C 20.7337,177.619 22.067,175.285 22.5,172.5C 20.8008,172.66 19.1341,172.494 17.5,172C 19.1579,170.337 21.1579,169.504 23.5,169.5C 25.4352,168.85 27.4352,168.517 29.5,168.5 Z"/></g>
<g><path style="opacity:1" fill="#dcebf9" d="M 24.5,171.5 C 25.8333,171.5 27.1667,171.5 28.5,171.5C 28.5,173.167 28.5,174.833 28.5,176.5C 25.0897,176.616 23.7564,174.95 24.5,171.5 Z"/></g>
<g><path style="opacity:1" fill="#a2cef4" d="M 247.5,184.5 C 251.634,183.515 255.968,183.182 260.5,183.5C 260.737,184.791 260.404,185.791 259.5,186.5C 255.971,184.577 251.971,183.911 247.5,184.5 Z"/></g>
<g><path style="opacity:1" fill="#337cdf" d="M 30.5,180.5 C 31.0967,180.735 31.4301,181.235 31.5,182C 30.4939,183.338 29.4939,184.671 28.5,186C 30.6314,186.543 32.6314,187.376 34.5,188.5C 30.1073,188.743 25.774,188.743 21.5,188.5C 25.1405,186.525 28.1405,183.858 30.5,180.5 Z"/></g>
<g><path style="opacity:1" fill="#3484e4" d="M 269.5,181.5 C 270.376,181.369 271.043,181.702 271.5,182.5C 266.511,188.938 268.178,191.771 276.5,191C 277.767,189.204 277.767,187.371 276.5,185.5C 277.274,184.289 278.107,184.289 279,185.5C 278.491,194.061 274.658,195.727 267.5,190.5C 265.875,186.954 266.542,183.954 269.5,181.5 Z"/></g>
<g><path style="opacity:1" fill="#1676e4" d="M 144.5,247.5 C 144.5,248.167 144.5,248.833 144.5,249.5C 121.166,214.329 88.1657,197.329 45.5,198.5C 43.374,192.125 41.0406,185.792 38.5,179.5C 40.3333,179.167 42.1667,178.833 44,178.5C 68.1744,180.502 90.3411,188.169 110.5,201.5C 126.718,213.287 138.051,228.621 144.5,247.5 Z"/></g>
<g><path style="opacity:1" fill="#d7dee8" d="M 6.5,138.5 C 4.89978,176.368 16.2331,209.702 40.5,238.5C 37.8495,236.613 35.1828,234.613 32.5,232.5C 15.2865,209.873 5.95313,184.206 4.5,155.5C 5.16667,149.833 5.83333,144.167 6.5,138.5 Z"/></g>
<g><path style="opacity:1" fill="#3c8be6" d="M 263.5,193.5 C 267.672,194.779 271.672,196.446 275.5,198.5C 274.833,198.833 274.167,199.167 273.5,199.5C 271.172,198.67 268.838,197.837 266.5,197C 264.574,196.578 263.574,195.411 263.5,193.5 Z"/></g>
<g><path style="opacity:1" fill="#3480e4" d="M 261.5,199.5 C 262.251,198.427 263.251,198.26 264.5,199C 267.3,200.309 269.967,201.809 272.5,203.5C 272.291,204.086 271.957,204.586 271.5,205C 268.774,205.182 266.107,205.682 263.5,206.5C 265.389,207.604 267.055,208.937 268.5,210.5C 268.167,210.833 267.833,211.167 267.5,211.5C 264.995,209.747 262.329,208.247 259.5,207C 258.663,205.989 258.33,204.822 258.5,203.5C 261.85,203.665 265.183,203.498 268.5,203C 265.97,202.109 263.637,200.942 261.5,199.5 Z"/></g>
<g><path style="opacity:1" fill="#327adf" d="M 33.5,197.5 C 40.8611,198.061 42.8611,201.561 39.5,208C 31.2318,212.238 27.8984,209.738 29.5,200.5C 30.9014,199.479 32.2347,198.479 33.5,197.5 Z"/></g>
<g><path style="opacity:1" fill="#dbeaf8" d="M 34.5,199.5 C 38.9764,199.8 40.3097,201.967 38.5,206C 34.8922,209.733 32.2256,209.233 30.5,204.5C 31.1267,202.213 32.46,200.546 34.5,199.5 Z"/></g>
<g><path style="opacity:1" fill="#deedfc" d="M 173.5,205.5 C 172.124,208.805 173.124,211.139 176.5,212.5C 164.295,223.55 155.462,236.883 150,252.5C 153.584,234.666 161.417,218.999 173.5,205.5 Z"/></g>
<g><path style="opacity:0.408" fill="#c7e5fa" d="M 278.5,211.5 C 277.59,214.992 275.924,217.992 273.5,220.5C 274.41,217.008 276.076,214.008 278.5,211.5 Z"/></g>
<g><path style="opacity:1" fill="#3080e5" d="M 12.5,109.5 C 8.57508,127.136 7.57508,144.803 9.5,162.5C 10.6262,171.631 12.4596,180.631 15,189.5C 35.2841,242.725 73.4508,274.391 129.5,284.5C 142.091,285.646 154.758,285.812 167.5,285C 217.356,277.597 254.023,251.764 277.5,207.5C 278.434,208.568 278.768,209.901 278.5,211.5C 276.076,214.008 274.41,217.008 273.5,220.5C 264.428,233.075 254.095,244.575 242.5,255C 229.665,264.743 215.999,272.91 201.5,279.5C 195.567,281.483 189.567,283.149 183.5,284.5C 178.578,284.87 173.911,285.87 169.5,287.5C 117.948,292.554 74.9484,276.221 40.5,238.5C 16.2331,209.702 4.89978,176.368 6.5,138.5C 6.64094,128.656 7.97428,118.99 10.5,109.5C 11.3957,108.494 12.0623,108.494 12.5,109.5 Z"/></g>
<g><path style="opacity:1" fill="#2a77e1" d="M 55.5,225.5 C 56.6491,225.791 57.3158,226.624 57.5,228C 57.0663,230.568 56.3997,233.068 55.5,235.5C 55.8333,235.833 56.1667,236.167 56.5,236.5C 58.1667,235.5 59.5,234.167 60.5,232.5C 61.451,231.674 62.451,231.508 63.5,232C 60.6511,235.016 57.6511,237.85 54.5,240.5C 53.0998,237.138 53.4331,233.971 55.5,231C 53.4324,231.017 51.7657,232.017 50.5,234C 49.5,234.667 48.5,234.667 47.5,234C 50.3714,231.297 53.0381,228.464 55.5,225.5 Z"/></g>
<g><path style="opacity:1" fill="#2c7de3" d="M 238.5,230.5 C 243.314,231.809 246.148,234.809 247,239.5C 239.445,231.415 238.611,232.249 244.5,242C 244.167,242.5 243.833,243 243.5,243.5C 240.754,241.197 237.754,239.697 234.5,239C 236.333,240.833 238.167,242.667 240,244.5C 240.688,245.332 240.521,245.998 239.5,246.5C 237.044,243.542 234.378,240.709 231.5,238C 232.108,237.13 232.941,236.63 234,236.5C 242.482,241.347 243.649,240.014 237.5,232.5C 237.863,231.817 238.196,231.15 238.5,230.5 Z"/></g>
<g><path style="opacity:1" fill="#2f7fe5" d="M 251.5,226.5 C 253.145,227.479 254.479,228.812 255.5,230.5C 254.833,230.833 254.167,231.167 253.5,231.5C 243.268,227.309 242.935,228.309 252.5,234.5C 252.167,234.833 251.833,235.167 251.5,235.5C 249.167,234 246.833,232.5 244.5,231C 242.963,229.89 242.297,228.39 242.5,226.5C 245.39,226.278 248.057,226.945 250.5,228.5C 251.298,228.043 251.631,227.376 251.5,226.5 Z"/></g>
<g><path style="opacity:1" fill="#387ddf" d="M 51.5,222.5 C 52.552,222.351 53.552,222.517 54.5,223C 51.938,226.065 48.938,228.565 45.5,230.5C 44.479,229.998 44.3123,229.332 45,228.5C 47.6637,227.002 49.8304,225.002 51.5,222.5 Z"/></g>
<g><path style="opacity:1" fill="#2a7fe5" d="M 251.5,226.5 C 247.486,224.82 246.819,222.487 249.5,219.5C 252.5,222 255.5,224.5 258.5,227C 255.336,226.879 252.836,225.379 251,222.5C 250.805,223.819 250.972,225.153 251.5,226.5 Z"/></g>
<g><path style="opacity:1" fill="#0f76e8" d="M 149.5,260.5 C 152.145,255.218 155.312,250.218 159,245.5C 172.323,231.093 188.489,221.76 207.5,217.5C 218.813,215.145 230.146,214.979 241.5,217C 217.699,245.731 187.033,260.231 149.5,260.5 Z"/></g>
<g><path style="opacity:1" fill="#1273e5" d="M 147.5,260.5 C 143.5,260.5 139.5,260.5 135.5,260.5C 102.127,255.317 75.4598,239.15 55.5,212C 58.5,211.833 61.5,211.667 64.5,211.5C 101.64,212.222 129.307,228.555 147.5,260.5 Z"/></g>
<g><path style="opacity:1" fill="#3379df" d="M 42.5,208.5 C 45.038,210.001 47.038,212.168 48.5,215C 46.6099,213.355 44.2766,212.188 41.5,211.5C 41.5861,213.677 42.2528,215.677 43.5,217.5C 43.1667,217.833 42.8333,218.167 42.5,218.5C 40.9874,214.35 38.654,213.683 35.5,216.5C 35.1667,216 34.8333,215.5 34.5,215C 37.3355,212.993 40.0022,210.827 42.5,208.5 Z"/></g>
<g><path style="opacity:1" fill="#3382e6" d="M 255.5,210.5 C 259.001,209.656 261.834,210.989 264,214.5C 265.416,218.508 264.082,220.841 260,221.5C 256.928,220.964 254.261,219.63 252,217.5C 251.312,216.668 251.479,216.002 252.5,215.5C 255.278,218.291 258.611,219.624 262.5,219.5C 262.657,218.127 262.49,216.793 262,215.5C 259.713,213.946 257.546,212.279 255.5,210.5 Z"/></g>
<g><path style="opacity:1" fill="#2c78e0" d="M 65.5,235.5 C 68.648,236.474 70.4813,238.474 71,241.5C 69.0414,238.211 66.8748,237.877 64.5,240.5C 68.6557,244.672 68.1557,245.339 63,242.5C 61.416,242.988 60.2494,243.988 59.5,245.5C 58.4173,244.635 58.2506,243.635 59,242.5C 61.3722,240.297 63.5389,237.963 65.5,235.5 Z"/></g>
<g><path style="opacity:1" fill="#3079e3" d="M 226.5,241.5 C 233.798,241.638 236.132,245.138 233.5,252C 226.634,254.953 223.134,252.787 223,245.5C 223.69,243.65 224.856,242.316 226.5,241.5 Z"/></g>
<g><path style="opacity:1" fill="#e9f3fc" d="M 226.5,243.5 C 231.984,243.481 233.65,245.981 231.5,251C 224.745,251.756 223.078,249.256 226.5,243.5 Z"/></g>
<g><path style="opacity:1" fill="#3279e0" d="M 71.5,243.5 C 78.3802,242.876 81.2136,245.876 80,252.5C 76.7751,257.387 73.1084,257.72 69,253.5C 68.0239,249.673 68.8572,246.34 71.5,243.5 Z"/></g>
<g><path style="opacity:1" fill="#e6f2fc" d="M 73.5,245.5 C 78.0685,245.083 79.5685,247.083 78,251.5C 74.7945,255.702 72.2945,255.369 70.5,250.5C 71.0924,248.577 72.0924,246.911 73.5,245.5 Z"/></g>
<g><path style="opacity:0.169" fill="#e5edf4" d="M 273.5,220.5 C 258.832,247.167 237.499,266.5 209.5,278.5C 206.833,278.833 204.167,279.167 201.5,279.5C 215.999,272.91 229.665,264.743 242.5,255C 254.095,244.575 264.428,233.075 273.5,220.5 Z"/></g>
<g><path style="opacity:1" fill="#2d79e1" d="M 214.5,249.5 C 216.199,249.34 217.866,249.506 219.5,250C 212.946,251.223 211.946,254.223 216.5,259C 219.827,260.163 221.827,258.997 222.5,255.5C 223.725,257.843 223.059,259.677 220.5,261C 216.316,262.165 213.483,260.665 212,256.5C 211.333,255.167 211.333,253.833 212,252.5C 213.045,251.627 213.878,250.627 214.5,249.5 Z"/></g>
<g><path style="opacity:1" fill="#51a5eb" d="M 145.5,245.5 C 146.903,248.909 147.57,252.575 147.5,256.5C 145.707,254.574 144.707,252.241 144.5,249.5C 144.5,248.833 144.5,248.167 144.5,247.5C 145.338,247.158 145.672,246.492 145.5,245.5 Z"/></g>
<g><path style="opacity:1" fill="#2d7ae0" d="M 83.5,250.5 C 87.4397,250.803 90.4397,252.636 92.5,256C 92.3552,256.772 92.0219,257.439 91.5,258C 90.062,258.219 88.7287,258.719 87.5,259.5C 88.5202,261.432 88.6869,263.432 88,265.5C 86.5544,263.059 85.7211,260.392 85.5,257.5C 83.3618,257.703 81.6951,258.703 80.5,260.5C 80.1667,260 79.8333,259.5 79.5,259C 81.079,256.263 82.4123,253.429 83.5,250.5 Z"/></g>
<g><path style="opacity:1" fill="#d5e7fa" d="M 85.5,252.5 C 88.3721,252.635 89.8721,253.969 90,256.5C 88.4931,257.535 86.9931,257.368 85.5,256C 84.3157,254.855 84.3157,253.688 85.5,252.5 Z"/></g>
<g><path style="opacity:1" fill="#2874e1" d="M 95.5,256.5 C 96.8333,256.5 98.1667,256.5 99.5,256.5C 98.6713,259.469 98.5046,262.469 99,265.5C 100.512,262.143 103.012,260.143 106.5,259.5C 105.628,263.77 103.961,267.77 101.5,271.5C 101.167,271.167 100.833,270.833 100.5,270.5C 101.5,268.5 102.5,266.5 103.5,264.5C 103.167,264.167 102.833,263.833 102.5,263.5C 100.833,265.5 99.1667,267.5 97.5,269.5C 96.6229,266.175 96.4563,262.842 97,259.5C 95.3602,261.579 94.1936,263.912 93.5,266.5C 92.8333,267.833 92.1667,267.833 91.5,266.5C 93.0369,263.218 94.3702,259.884 95.5,256.5 Z"/></g>
<g><path style="opacity:1" fill="#2d83e6" d="M 189.5,261.5 C 192.55,263.759 194.217,266.926 194.5,271C 194.167,271.833 193.833,272.667 193.5,273.5C 190.567,272.07 188.067,270.07 186,267.5C 185.748,269.931 186.248,272.265 187.5,274.5C 187.167,274.833 186.833,275.167 186.5,275.5C 184.244,271.808 182.91,267.808 182.5,263.5C 185.959,264.436 188.793,266.436 191,269.5C 191.428,266.678 190.928,264.012 189.5,261.5 Z"/></g>
<g><path style="opacity:1" fill="#347be1" d="M 126.5,269.5 C 126.5,270.167 126.5,270.833 126.5,271.5C 125.801,273.556 124.801,275.556 123.5,277.5C 123.167,276.833 122.833,276.167 122.5,275.5C 123.328,272.521 123.995,269.521 124.5,266.5C 123.325,266.719 122.325,266.386 121.5,265.5C 124.436,265.134 127.436,265.634 130.5,267C 128.563,267.122 127.23,267.955 126.5,269.5 Z"/></g>
<g><path style="opacity:1" fill="#2c7de5" d="M 198.5,257.5 C 205.529,258.353 207.696,262.02 205,268.5C 203.247,269.627 201.413,270.627 199.5,271.5C 197.564,267.961 195.897,264.294 194.5,260.5C 195.901,259.479 197.235,258.479 198.5,257.5 Z"/></g>
<g><path style="opacity:1" fill="#e2f0fd" d="M 198.5,259.5 C 204.191,259.548 205.857,262.215 203.5,267.5C 202.264,268.246 200.93,268.579 199.5,268.5C 199.276,266.213 198.609,264.047 197.5,262C 197.743,261.098 198.077,260.265 198.5,259.5 Z"/></g>
<g><path style="opacity:1" fill="#2d7de3" d="M 112.5,262.5 C 113.822,262.33 114.989,262.663 116,263.5C 116.827,267.541 116.66,271.541 115.5,275.5C 114.77,274.066 113.77,272.9 112.5,272C 110.239,271.761 108.239,271.594 106.5,271.5C 108.526,268.482 110.526,265.482 112.5,262.5 Z"/></g>
<g><path style="opacity:1" fill="#b9daf6" d="M 112.5,265.5 C 114.256,266.552 114.923,268.219 114.5,270.5C 113.5,270.5 112.5,270.5 111.5,270.5C 111.629,268.784 111.962,267.117 112.5,265.5 Z"/></g>
<g><path style="opacity:1" fill="#3c84e1" d="M 134.5,276.5 C 134.585,277.995 133.919,278.995 132.5,279.5C 131.548,277.955 131.215,276.288 131.5,274.5C 132.473,272.052 132.806,269.385 132.5,266.5C 133.675,266.281 134.675,266.614 135.5,267.5C 134.593,270.421 134.26,273.421 134.5,276.5 Z"/></g>
<g><path style="opacity:0.588" fill="#ebedec" d="M 32.5,232.5 C 35.1828,234.613 37.8495,236.613 40.5,238.5C 74.9484,276.221 117.948,292.554 169.5,287.5C 174.531,287.557 179.198,286.557 183.5,284.5C 189.567,283.149 195.567,281.483 201.5,279.5C 204.167,279.167 206.833,278.833 209.5,278.5C 184.836,290.05 158.836,294.216 131.5,291C 95.7065,286.188 65.5398,270.688 41,244.5C 37.5335,240.88 34.7001,236.88 32.5,232.5 Z"/></g>
<g><path style="opacity:1" fill="#3682e7" d="M 172.5,265.5 C 174.39,265.297 175.89,265.963 177,267.5C 178.667,269.833 180.333,272.167 182,274.5C 182.688,275.332 182.521,275.998 181.5,276.5C 177.729,273.526 174.729,274.192 172.5,278.5C 171.577,274.194 171.577,269.861 172.5,265.5 Z"/></g>
<g><path style="opacity:1" fill="#d3edfb" d="M 174.5,268.5 C 175.837,269.315 176.837,270.482 177.5,272C 176.975,272.692 176.308,273.192 175.5,273.5C 174.548,271.955 174.215,270.288 174.5,268.5 Z"/></g>
<g><path style="opacity:1" fill="#287de4" d="M 158.5,274.5 C 158.56,275.043 158.893,275.376 159.5,275.5C 160.793,273.364 160.793,271.364 159.5,269.5C 160.092,266.917 160.758,266.917 161.5,269.5C 162.327,272.783 162.66,276.116 162.5,279.5C 159.633,278.313 157.3,276.313 155.5,273.5C 154.833,275.833 154.167,278.167 153.5,280.5C 152.167,276.5 152.167,272.5 153.5,268.5C 155.641,270.122 157.308,272.122 158.5,274.5 Z"/></g>
<g><path style="opacity:1" fill="#6db2f3" d="M 159.5,269.5 C 160.793,271.364 160.793,273.364 159.5,275.5C 158.893,275.376 158.56,275.043 158.5,274.5C 159.451,273.081 159.784,271.415 159.5,269.5 Z"/></g>
<g><path style="opacity:1" fill="#307ae2" d="M 145.5,267.5 C 149.575,270.367 150.408,274.034 148,278.5C 143.766,281.398 140.266,280.731 137.5,276.5C 136.749,270.291 139.415,267.291 145.5,267.5 Z"/></g>
<g><path style="opacity:1" fill="#ddeefc" d="M 141.5,269.5 C 147.643,270.026 148.976,272.86 145.5,278C 139.229,277.863 137.896,275.029 141.5,269.5 Z"/></g>
<g><path style="opacity:1" fill="#a5c1eb" d="M 183.5,284.5 C 179.198,286.557 174.531,287.557 169.5,287.5C 173.911,285.87 178.578,284.87 183.5,284.5 Z"/></g>
</svg>
